<svg width="262" height="58" viewBox="0 0 262 58" fill="none" xmlns="http://www.w3.org/2000/svg">
<path d="M89.0212 40.3013L86.0142 37.0033L100.904 23.7143C101.389 23.2616 101.922 23.0515 102.504 23.0838C103.119 23.1161 103.636 23.3748 104.056 23.8598C104.509 24.3448 104.719 24.8783 104.687 25.4603C104.654 26.0423 104.396 26.5596 103.911 27.0123L89.0212 40.3013ZM86.7417 50.0013C86.0304 50.0013 85.4484 49.7911 84.9957 49.3708C84.5754 48.9181 84.3652 48.3361 84.3652 47.6248V14.4993C84.3652 13.788 84.5754 13.2221 84.9957 12.8018C85.4484 12.3491 86.0304 12.1228 86.7417 12.1228C87.4531 12.1228 88.0189 12.3491 88.4392 12.8018C88.8919 13.2221 89.1182 13.788 89.1182 14.4993V47.6248C89.1182 48.3361 88.8919 48.9181 88.4392 49.3708C88.0189 49.7911 87.4531 50.0013 86.7417 50.0013ZM104.056 49.7588C103.539 50.1791 102.957 50.357 102.31 50.2923C101.696 50.26 101.179 49.9851 100.758 49.4678L90.9127 37.2943L94.3077 34.0933L104.396 46.5093C104.816 47.0266 104.994 47.5925 104.929 48.2068C104.897 48.7888 104.606 49.3061 104.056 49.7588Z" fill="#4351E8"/>
<path d="M122.027 50.1953C119.343 50.1953 116.951 49.6295 114.849 48.4978C112.78 47.3338 111.147 45.7495 109.951 43.7448C108.787 41.7078 108.205 39.3798 108.205 36.7608C108.205 34.1095 108.754 31.7815 109.854 29.7768C110.985 27.7398 112.537 26.1555 114.51 25.0238C116.482 23.8598 118.745 23.2778 121.299 23.2778C123.821 23.2778 125.988 23.8436 127.799 24.9753C129.609 26.0746 130.983 27.6105 131.921 29.5828C132.891 31.5228 133.376 33.77 133.376 36.3243C133.376 36.9386 133.166 37.456 132.746 37.8763C132.325 38.2643 131.792 38.4583 131.145 38.4583H111.6V34.5783H131L129.011 35.9363C128.979 34.3196 128.655 32.8808 128.041 31.6198C127.427 30.3265 126.554 29.308 125.422 28.5643C124.29 27.8206 122.916 27.4488 121.299 27.4488C119.456 27.4488 117.872 27.853 116.547 28.6613C115.253 29.4696 114.267 30.5851 113.588 32.0078C112.909 33.3981 112.569 34.9825 112.569 36.7608C112.569 38.5391 112.974 40.1235 113.782 41.5138C114.59 42.9041 115.706 44.0035 117.129 44.8118C118.551 45.6201 120.184 46.0243 122.027 46.0243C123.029 46.0243 124.048 45.8465 125.083 45.4908C126.15 45.1028 127.006 44.6663 127.653 44.1813C128.138 43.8256 128.655 43.6478 129.205 43.6478C129.787 43.6155 130.288 43.7771 130.708 44.1328C131.258 44.6178 131.549 45.1513 131.582 45.7333C131.614 46.3153 131.355 46.8165 130.806 47.2368C129.706 48.1098 128.332 48.8211 126.683 49.3708C125.066 49.9205 123.514 50.1953 122.027 50.1953Z" fill="#4351E8"/>
<path d="M142.062 33.4143C142.062 31.4743 142.531 29.7445 143.469 28.2248C144.439 26.6728 145.732 25.4441 147.349 24.5388C148.965 23.6335 150.744 23.1808 152.684 23.1808C154.624 23.1808 156.062 23.5041 157 24.1508C157.97 24.7651 158.342 25.5088 158.116 26.3818C158.019 26.8345 157.825 27.1901 157.534 27.4488C157.275 27.6751 156.968 27.8206 156.612 27.8853C156.256 27.95 155.868 27.9338 155.448 27.8368C153.379 27.4165 151.52 27.3841 149.871 27.7398C148.222 28.0955 146.912 28.7583 145.942 29.7283C145.004 30.6983 144.536 31.927 144.536 33.4143H142.062ZM142.111 50.0013C141.335 50.0013 140.736 49.8073 140.316 49.4193C139.896 48.999 139.686 48.3846 139.686 47.5763V25.8968C139.686 25.1208 139.896 24.5226 140.316 24.1023C140.736 23.682 141.335 23.4718 142.111 23.4718C142.919 23.4718 143.517 23.682 143.905 24.1023C144.325 24.4903 144.536 25.0885 144.536 25.8968V47.5763C144.536 48.3523 144.325 48.9505 143.905 49.3708C143.517 49.7911 142.919 50.0013 142.111 50.0013Z" fill="#4351E8"/>
<path d="M185.679 50.0498C184.968 50.0498 184.37 49.8235 183.885 49.3708C183.432 48.8858 183.206 48.2876 183.206 47.5763V35.6453C183.206 33.8023 182.866 32.2988 182.187 31.1348C181.508 29.9708 180.587 29.114 179.423 28.5643C178.291 27.9823 176.982 27.6913 175.494 27.6913C174.136 27.6913 172.908 27.9661 171.808 28.5158C170.709 29.0655 169.836 29.8091 169.189 30.7468C168.543 31.6521 168.219 32.703 168.219 33.8993H165.164C165.164 31.8623 165.649 30.0516 166.619 28.4673C167.621 26.8506 168.979 25.5735 170.693 24.6358C172.407 23.6981 174.33 23.2293 176.464 23.2293C178.695 23.2293 180.684 23.7143 182.43 24.6843C184.208 25.622 185.599 27.0123 186.601 28.8553C187.636 30.6983 188.153 32.9616 188.153 35.6453V47.5763C188.153 48.2876 187.91 48.8858 187.425 49.3708C186.973 49.8235 186.391 50.0498 185.679 50.0498ZM165.746 50.0498C165.035 50.0498 164.436 49.8235 163.951 49.3708C163.499 48.8858 163.272 48.2876 163.272 47.5763V25.9453C163.272 25.2016 163.499 24.6035 163.951 24.1508C164.436 23.6981 165.035 23.4718 165.746 23.4718C166.49 23.4718 167.088 23.6981 167.54 24.1508C167.993 24.6035 168.219 25.2016 168.219 25.9453V47.5763C168.219 48.2876 167.993 48.8858 167.54 49.3708C167.088 49.8235 166.49 50.0498 165.746 50.0498Z" fill="#4351E8"/>
<path d="M202.637 50.0013C201.214 50.0013 199.953 49.6133 198.854 48.8373C197.755 48.0613 196.898 47.0105 196.284 45.6848C195.669 44.3268 195.362 42.7748 195.362 41.0288V14.5478C195.362 13.8365 195.588 13.2545 196.041 12.8018C196.494 12.3491 197.076 12.1228 197.787 12.1228C198.498 12.1228 199.08 12.3491 199.533 12.8018C199.986 13.2545 200.212 13.8365 200.212 14.5478V41.0288C200.212 42.2251 200.438 43.2113 200.891 43.9873C201.344 44.7633 201.926 45.1513 202.637 45.1513H203.85C204.496 45.1513 205.014 45.3776 205.402 45.8303C205.822 46.283 206.032 46.865 206.032 47.5763C206.032 48.2876 205.725 48.8696 205.111 49.3223C204.496 49.775 203.704 50.0013 202.734 50.0013H202.637Z" fill="#4351E8"/>
<path d="M212.279 50.7773C211.374 50.7773 210.582 50.454 209.903 49.8073C209.256 49.1283 208.933 48.3361 208.933 47.4308C208.933 46.4931 209.256 45.701 209.903 45.0543C210.582 44.3753 211.374 44.0358 212.279 44.0358C213.217 44.0358 214.009 44.3753 214.656 45.0543C215.302 45.701 215.626 46.4931 215.626 47.4308C215.626 48.3361 215.302 49.1283 214.656 49.8073C214.009 50.454 213.217 50.7773 212.279 50.7773Z" fill="#4351E8"/>
<path d="M233.487 50.1953C231.127 50.1953 229.009 49.6133 227.134 48.4493C225.258 47.253 223.771 45.6525 222.672 43.6478C221.605 41.6108 221.071 39.3151 221.071 36.7608C221.071 34.2065 221.653 31.9108 222.817 29.8738C224.014 27.8368 225.614 26.2363 227.619 25.0723C229.656 23.876 231.935 23.2778 234.457 23.2778C236.979 23.2778 239.243 23.876 241.247 25.0723C243.252 26.2363 244.836 27.8368 246 29.8738C247.197 31.9108 247.795 34.2065 247.795 36.7608H245.903C245.903 39.3151 245.354 41.6108 244.254 43.6478C243.187 45.6525 241.716 47.253 239.841 48.4493C237.965 49.6133 235.848 50.1953 233.487 50.1953ZM234.457 45.8303C236.106 45.8303 237.577 45.4423 238.871 44.6663C240.164 43.858 241.183 42.7748 241.926 41.4168C242.67 40.0265 243.042 38.4745 243.042 36.7608C243.042 35.0148 242.67 33.4628 241.926 32.1048C241.183 30.7145 240.164 29.6313 238.871 28.8553C237.577 28.047 236.106 27.6428 234.457 27.6428C232.841 27.6428 231.369 28.047 230.044 28.8553C228.75 29.6313 227.716 30.7145 226.94 32.1048C226.196 33.4628 225.824 35.0148 225.824 36.7608C225.824 38.4745 226.196 40.0265 226.94 41.4168C227.716 42.7748 228.75 43.858 230.044 44.6663C231.369 45.4423 232.841 45.8303 234.457 45.8303ZM245.321 50.0498C244.61 50.0498 244.012 49.8235 243.527 49.3708C243.074 48.8858 242.848 48.2876 242.848 47.5763V40.1558L243.769 35.0148L247.795 36.7608V47.5763C247.795 48.2876 247.552 48.8858 247.067 49.3708C246.615 49.8235 246.033 50.0498 245.321 50.0498Z" fill="#4351E8"/>
<path d="M258.116 50.0013C257.404 50.0013 256.806 49.775 256.321 49.3223C255.869 48.8373 255.642 48.2391 255.642 47.5278V25.9453C255.642 25.2016 255.869 24.6035 256.321 24.1508C256.806 23.6981 257.404 23.4718 258.116 23.4718C258.859 23.4718 259.458 23.6981 259.91 24.1508C260.363 24.6035 260.589 25.2016 260.589 25.9453V47.5278C260.589 48.2391 260.363 48.8373 259.91 49.3223C259.458 49.775 258.859 50.0013 258.116 50.0013ZM258.116 19.1553C257.243 19.1553 256.483 18.8481 255.836 18.2338C255.222 17.5871 254.915 16.8273 254.915 15.9543C254.915 15.0813 255.222 14.3376 255.836 13.7233C256.483 13.0766 257.243 12.7533 258.116 12.7533C258.989 12.7533 259.732 13.0766 260.347 13.7233C260.993 14.3376 261.317 15.0813 261.317 15.9543C261.317 16.8273 260.993 17.5871 260.347 18.2338C259.732 18.8481 258.989 19.1553 258.116 19.1553Z" fill="#4351E8"/>
<path fill-rule="evenodd" clip-rule="evenodd" d="M6 0C2.68629 0 0 2.68629 0 6V52C0 55.3137 2.68629 58 6 58H60C63.3137 58 66 55.3137 66 52V6C66 2.68629 63.3137 0 60 0H6ZM51.9497 47.9498C49.2161 50.6834 44.7839 50.6834 42.0503 47.9498C40.5316 46.4311 40.0676 43.9921 39.655 41.824C39.3249 40.0892 39.0278 38.5278 38.25 37.75C37.4096 36.9096 35.7824 36.1875 34.0908 35.4367C32.2598 34.6241 30.3534 33.778 29.2877 32.7123C27.2374 30.6621 27.2374 27.338 29.2877 25.2877C30.3534 24.222 32.2598 23.3759 34.0908 22.5633C35.7824 21.8126 37.4096 21.0904 38.25 20.25C39.0278 19.4722 39.3249 17.9108 39.655 16.176C40.0676 14.0079 40.5316 11.5689 42.0503 10.0503C44.7839 7.31658 49.2161 7.31658 51.9497 10.0503C54.6834 12.7839 54.6834 17.2161 51.9497 19.9497C50.4311 21.4684 47.9921 21.9324 45.824 22.345C44.0892 22.6751 42.5278 22.9722 41.75 23.75C40.7293 24.7707 38.948 26.676 38.948 29C38.948 31.324 40.7293 33.2293 41.75 34.25C42.5278 35.0278 44.0892 35.3249 45.824 35.655C47.9921 36.0676 50.4311 36.5317 51.9497 38.0503C54.6834 40.7839 54.6834 45.2161 51.9497 47.9498ZM12 15C12 11.5 15.134 8.00002 19 8.00002C22.866 8.00002 26 11.5 26 15C26 16.4498 25.3995 17.8995 24.696 19.598C23.701 22 22.5 24.8995 22.5 29C22.5 33.1005 23.701 36 24.696 38.402C25.3995 40.1005 26 41.5503 26 43C26 46.5 22.866 50 19 50C15.134 50 12 46.5 12 43C12 41.5503 12.6005 40.1005 13.304 38.402C14.299 36 15.5 33.1005 15.5 29C15.5 24.8995 14.299 22 13.304 19.598C12.6005 17.8995 12 16.4498 12 15Z" fill="#4351E8"/>
</svg>
