<svg width="531" height="117" viewBox="0 0 531 117" fill="none" xmlns="http://www.w3.org/2000/svg">
<path d="M177.111 74.0999L171.407 67.8439L199.651 42.6359C200.571 41.7773 201.583 41.3786 202.687 41.44C203.853 41.5013 204.834 41.9919 205.631 42.9119C206.49 43.8319 206.889 44.8439 206.827 45.9479C206.766 47.0519 206.275 48.0333 205.355 48.8919L177.111 74.0999ZM172.787 92.5C171.438 92.5 170.334 92.1013 169.475 91.3039C168.678 90.4453 168.279 89.3413 168.279 87.992V25.1559C168.279 23.8066 168.678 22.7333 169.475 21.9359C170.334 21.0773 171.438 20.6479 172.787 20.6479C174.137 20.6479 175.21 21.0773 176.007 21.9359C176.866 22.7333 177.295 23.8066 177.295 25.1559V87.992C177.295 89.3413 176.866 90.4453 176.007 91.3039C175.21 92.1013 174.137 92.5 172.787 92.5ZM205.631 92.0399C204.65 92.8373 203.546 93.1746 202.319 93.0519C201.154 92.9906 200.173 92.4693 199.375 91.488L180.699 68.396L187.139 62.324L206.275 85.876C207.073 86.8573 207.41 87.9306 207.287 89.0959C207.226 90.1999 206.674 91.1813 205.631 92.0399Z" fill="#4351E8"/>
<path d="M239.72 92.868C234.63 92.868 230.091 91.7946 226.104 89.6479C222.179 87.4399 219.082 84.4346 216.812 80.632C214.604 76.768 213.5 72.3519 213.5 67.3839C213.5 62.3546 214.543 57.9386 216.628 54.1359C218.775 50.2719 221.719 47.2666 225.46 45.1199C229.202 42.912 233.495 41.808 238.34 41.808C243.124 41.808 247.234 42.8813 250.668 45.0279C254.103 47.1133 256.71 50.0266 258.488 53.7679C260.328 57.4479 261.248 61.7106 261.248 66.556C261.248 67.7213 260.85 68.7026 260.052 69.5C259.255 70.236 258.243 70.604 257.016 70.604H219.94V63.2439H256.74L252.968 65.82C252.907 62.7533 252.294 60.024 251.128 57.632C249.963 55.1786 248.307 53.2466 246.16 51.8359C244.014 50.4253 241.407 49.7199 238.34 49.7199C234.844 49.7199 231.839 50.4866 229.324 52.0199C226.871 53.5533 225 55.6693 223.712 58.368C222.424 61.0053 221.78 64.0106 221.78 67.3839C221.78 70.7573 222.547 73.7626 224.08 76.3999C225.614 79.0373 227.73 81.1226 230.428 82.6559C233.127 84.1893 236.224 84.9559 239.72 84.9559C241.622 84.9559 243.554 84.6186 245.516 83.944C247.54 83.208 249.166 82.3799 250.392 81.4599C251.312 80.7853 252.294 80.4479 253.336 80.4479C254.44 80.3866 255.391 80.6933 256.188 81.368C257.231 82.288 257.783 83.2999 257.844 84.4039C257.906 85.508 257.415 86.4586 256.372 87.256C254.287 88.912 251.68 90.2613 248.552 91.3039C245.486 92.3466 242.542 92.868 239.72 92.868Z" fill="#4351E8"/>
<path d="M277.725 61.0359C277.725 57.3559 278.614 54.0746 280.393 51.1919C282.233 48.2479 284.686 45.9173 287.753 44.1999C290.819 42.4826 294.193 41.6239 297.873 41.6239C301.553 41.6239 304.282 42.2373 306.061 43.4639C307.901 44.6293 308.606 46.04 308.177 47.6959C307.993 48.5546 307.625 49.2293 307.073 49.7199C306.582 50.1493 305.999 50.4253 305.325 50.5479C304.65 50.6706 303.914 50.6399 303.117 50.4559C299.191 49.6586 295.665 49.5973 292.537 50.2719C289.409 50.9466 286.925 52.2039 285.085 54.0439C283.306 55.8839 282.417 58.2146 282.417 61.0359H277.725ZM277.817 92.5C276.345 92.5 275.21 92.132 274.413 91.396C273.615 90.5986 273.217 89.4333 273.217 87.8999V46.7759C273.217 45.3039 273.615 44.1693 274.413 43.3719C275.21 42.5746 276.345 42.1759 277.817 42.1759C279.35 42.1759 280.485 42.5746 281.221 43.3719C282.018 44.1079 282.417 45.2426 282.417 46.7759V87.8999C282.417 89.3719 282.018 90.5066 281.221 91.3039C280.485 92.1013 279.35 92.5 277.817 92.5Z" fill="#4351E8"/>
<path d="M360.463 92.5919C359.114 92.5919 357.979 92.1626 357.059 91.3039C356.2 90.3839 355.771 89.2493 355.771 87.8999V65.268C355.771 61.772 355.127 58.9199 353.839 56.7119C352.551 54.5039 350.803 52.8786 348.595 51.8359C346.448 50.732 343.964 50.18 341.143 50.18C338.567 50.18 336.236 50.7013 334.151 51.7439C332.066 52.7866 330.41 54.1973 329.183 55.9759C327.956 57.6933 327.343 59.6866 327.343 61.9559H321.547C321.547 58.0919 322.467 54.6573 324.307 51.6519C326.208 48.5853 328.784 46.1626 332.035 44.384C335.286 42.6053 338.935 41.7159 342.983 41.7159C347.215 41.7159 350.987 42.6359 354.299 44.476C357.672 46.2546 360.31 48.8919 362.211 52.3879C364.174 55.8839 365.155 60.1773 365.155 65.268V87.8999C365.155 89.2493 364.695 90.3839 363.775 91.3039C362.916 92.1626 361.812 92.5919 360.463 92.5919ZM322.651 92.5919C321.302 92.5919 320.167 92.1626 319.247 91.3039C318.388 90.3839 317.959 89.2493 317.959 87.8999V46.8679C317.959 45.4573 318.388 44.3226 319.247 43.4639C320.167 42.6053 321.302 42.1759 322.651 42.1759C324.062 42.1759 325.196 42.6053 326.055 43.4639C326.914 44.3226 327.343 45.4573 327.343 46.8679V87.8999C327.343 89.2493 326.914 90.3839 326.055 91.3039C325.196 92.1626 324.062 92.5919 322.651 92.5919Z" fill="#4351E8"/>
<path d="M392.63 92.5C389.931 92.5 387.539 91.764 385.454 90.292C383.369 88.82 381.743 86.8266 380.578 84.312C379.413 81.7359 378.83 78.7919 378.83 75.4799V25.248C378.83 23.8986 379.259 22.7946 380.118 21.9359C380.977 21.0773 382.081 20.6479 383.43 20.6479C384.779 20.6479 385.883 21.0773 386.742 21.9359C387.601 22.7946 388.03 23.8986 388.03 25.248V75.4799C388.03 77.7493 388.459 79.6199 389.318 81.0919C390.177 82.5639 391.281 83.2999 392.63 83.2999H394.93C396.157 83.2999 397.138 83.7293 397.874 84.588C398.671 85.4466 399.07 86.5506 399.07 87.8999C399.07 89.2493 398.487 90.3533 397.322 91.212C396.157 92.0706 394.654 92.5 392.814 92.5H392.63Z" fill="#4351E8"/>
<path d="M410.92 93.972C409.203 93.972 407.7 93.3586 406.412 92.132C405.185 90.844 404.572 89.3413 404.572 87.6239C404.572 85.8453 405.185 84.3426 406.412 83.116C407.7 81.828 409.203 81.184 410.92 81.184C412.699 81.184 414.201 81.828 415.428 83.116C416.655 84.3426 417.268 85.8453 417.268 87.6239C417.268 89.3413 416.655 90.844 415.428 92.132C414.201 93.3586 412.699 93.972 410.92 93.972Z" fill="#4351E8"/>
<path d="M451.15 92.868C446.673 92.868 442.655 91.764 439.098 89.556C435.541 87.2866 432.719 84.2506 430.634 80.4479C428.61 76.5839 427.598 72.2293 427.598 67.3839C427.598 62.5386 428.702 58.1839 430.91 54.32C433.179 50.456 436.215 47.4199 440.018 45.212C443.882 42.9426 448.206 41.808 452.99 41.808C457.774 41.808 462.067 42.9426 465.87 45.212C469.673 47.4199 472.678 50.456 474.886 54.32C477.155 58.1839 478.29 62.5386 478.29 67.3839H474.702C474.702 72.2293 473.659 76.5839 471.574 80.4479C469.55 84.2506 466.759 87.2866 463.202 89.556C459.645 91.764 455.627 92.868 451.15 92.868ZM452.99 84.588C456.118 84.588 458.908 83.852 461.362 82.38C463.815 80.8466 465.747 78.7919 467.158 76.216C468.569 73.5786 469.274 70.6346 469.274 67.3839C469.274 64.0719 468.569 61.1279 467.158 58.5519C465.747 55.9146 463.815 53.8599 461.362 52.3879C458.908 50.8546 456.118 50.0879 452.99 50.0879C449.923 50.0879 447.132 50.8546 444.618 52.3879C442.164 53.8599 440.202 55.9146 438.73 58.5519C437.319 61.1279 436.614 64.0719 436.614 67.3839C436.614 70.6346 437.319 73.5786 438.73 76.216C440.202 78.7919 442.164 80.8466 444.618 82.38C447.132 83.852 449.923 84.588 452.99 84.588ZM473.598 92.5919C472.249 92.5919 471.114 92.1626 470.194 91.3039C469.335 90.3839 468.906 89.2493 468.906 87.8999V73.824L470.654 64.0719L478.29 67.3839V87.8999C478.29 89.2493 477.83 90.3839 476.91 91.3039C476.051 92.1626 474.947 92.5919 473.598 92.5919Z" fill="#4351E8"/>
<path d="M497.868 92.5C496.519 92.5 495.384 92.0706 494.464 91.212C493.605 90.292 493.176 89.1573 493.176 87.808V46.8679C493.176 45.4573 493.605 44.3226 494.464 43.4639C495.384 42.6053 496.519 42.1759 497.868 42.1759C499.279 42.1759 500.413 42.6053 501.272 43.4639C502.131 44.3226 502.56 45.4573 502.56 46.8679V87.808C502.56 89.1573 502.131 90.292 501.272 91.212C500.413 92.0706 499.279 92.5 497.868 92.5ZM497.868 33.9879C496.212 33.9879 494.771 33.4053 493.544 32.2399C492.379 31.0133 491.796 29.5719 491.796 27.9159C491.796 26.2599 492.379 24.8493 493.544 23.6839C494.771 22.4573 496.212 21.844 497.868 21.844C499.524 21.844 500.935 22.4573 502.1 23.6839C503.327 24.8493 503.94 26.2599 503.94 27.9159C503.94 29.5719 503.327 31.0133 502.1 32.2399C500.935 33.4053 499.524 33.9879 497.868 33.9879Z" fill="#4351E8"/>
<path fill-rule="evenodd" clip-rule="evenodd" d="M12 0C5.37258 0 0 5.37258 0 12V104C0 110.627 5.37258 116 12 116H120C126.627 116 132 110.627 132 104V12C132 5.37258 126.627 0 120 0H12ZM103.899 95.8995C98.4322 101.367 89.5678 101.367 84.1005 95.8995C81.0633 92.8623 80.1351 87.9843 79.31 83.6479C78.6498 80.1784 78.0557 77.0557 76.5 75.5C74.8192 73.8193 71.5648 72.3749 68.1816 70.8734C64.5196 69.2482 60.7068 67.556 58.5754 65.4247C54.4749 61.3242 54.4749 54.6759 58.5754 50.5754C60.7068 48.444 64.5196 46.7519 68.1816 45.1266C71.5648 43.6251 74.8192 42.1808 76.5 40.5C78.0557 38.9443 78.6498 35.8216 79.31 32.3521C80.1351 28.0158 81.0633 23.1377 84.1005 20.1005C89.5678 14.6332 98.4322 14.6332 103.899 20.1005C109.367 25.5678 109.367 34.4322 103.899 39.8995C100.862 42.9367 95.9842 43.8649 91.6479 44.69C88.1784 45.3502 85.0557 45.9443 83.5 47.5C81.4586 49.5414 77.8959 53.352 77.8959 58C77.8959 62.648 81.4586 66.4586 83.5 68.5C85.0557 70.0557 88.1784 70.6499 91.6479 71.31C95.9842 72.1351 100.862 73.0633 103.899 76.1005C109.367 81.5679 109.367 90.4322 103.899 95.8995ZM24 30C24 23 30.268 16 38 16C45.732 16 52 23 52 30C52 32.8995 50.799 35.799 49.3919 39.196C47.402 44 45 49.799 45 58C45 66.201 47.402 72 49.3919 76.8041C50.799 80.201 52 83.1005 52 86C52 93 45.732 100 38 100C30.268 100 24 93 24 86C24 83.1005 25.201 80.201 26.6081 76.8041C28.598 72 31 66.201 31 58C31 49.799 28.598 44 26.6081 39.196C25.201 35.799 24 32.8995 24 30Z" fill="#4351E8"/>
</svg>
