<svg xmlns="http://www.w3.org/2000/svg" width="532" height="931" fill="none">
    <path fill="#000" d="M459.731 930.763v-12.282h-22.977v-4.14l24.495-31.74h3.174v31.602h6.072v4.278h-6.072v12.282h-4.692Zm-18.009-16.56h18.492v-24.219l-18.492 24.219ZM454 158l-17.321 30h34.642L454 158Zm-3 27v682h6V185h-6ZM299.808 909.783c0 4.048-.759 7.659-2.277 10.833-1.472 3.128-3.519 5.589-6.141 7.383-2.622 1.794-5.589 2.691-8.901 2.691-3.312 0-6.279-.897-8.901-2.691-2.576-1.794-4.623-4.255-6.141-7.383-1.518-3.174-2.277-6.785-2.277-10.833s.759-7.636 2.277-10.764c1.518-3.174 3.565-5.658 6.141-7.452 2.622-1.84 5.589-2.76 8.901-2.76 3.312 0 6.279.92 8.901 2.76 2.622 1.794 4.669 4.278 6.141 7.452 1.518 3.128 2.277 6.716 2.277 10.764Zm-4.761 0c0-3.266-.529-6.141-1.587-8.625-1.058-2.484-2.53-4.416-4.416-5.796-1.886-1.426-4.071-2.139-6.555-2.139s-4.669.713-6.555 2.139c-1.886 1.38-3.381 3.312-4.485 5.796-1.058 2.484-1.587 5.359-1.587 8.625s.529 6.141 1.587 8.625c1.104 2.484 2.599 4.416 4.485 5.796 1.886 1.38 4.071 2.07 6.555 2.07s4.669-.69 6.555-2.07c1.886-1.426 3.358-3.358 4.416-5.796 1.058-2.484 1.587-5.359 1.587-8.625ZM283 789l-17.321 30h34.642L283 789Zm-3 27v51h6v-51h-6ZM107.731 930.763v-12.282H84.754v-4.14l24.495-31.74h3.174v31.602h6.072v4.278h-6.072v12.282h-4.692Zm-18.01-16.56h18.493v-24.219l-18.492 24.219ZM102 789l-17.32 30h34.641L102 789Zm-3 27v51h6v-51h-6Z"/>
    <rect width="231" height="93" x="83.5" y="691.5" fill="#C4BFDC" rx="15.5"/>
    <path fill="#000" d="m174.835 745.539 8.184-28.773h3.965l-2.294 11.186L175.883 758h-3.937l2.889-12.461Zm-8.468-28.773 6.514 28.207L174.835 758h-3.908l-9.997-41.234h5.437Zm31.209 28.178 6.372-28.178h5.466L199.445 758h-3.908l2.039-13.056Zm-9.997-28.178 7.958 28.773L198.426 758h-3.937l-8.496-30.048-2.322-11.186h3.908Zm37.172 41.8c-2.133 0-4.069-.358-5.806-1.076a13.151 13.151 0 0 1-4.446-3.087c-1.227-1.321-2.171-2.888-2.832-4.701-.661-1.812-.991-3.795-.991-5.947v-1.19c0-2.492.368-4.71 1.104-6.655.737-1.963 1.737-3.625 3.002-4.984 1.265-1.36 2.7-2.389 4.305-3.087a12.357 12.357 0 0 1 4.984-1.048c2.191 0 4.079.378 5.664 1.133 1.605.755 2.917 1.812 3.937 3.172 1.02 1.34 1.775 2.926 2.266 4.758.49 1.812.736 3.794.736 5.947v2.35h-22.883v-4.276h17.644v-.396a13.077 13.077 0 0 0-.85-3.965 7.125 7.125 0 0 0-2.266-3.172c-1.038-.831-2.454-1.246-4.248-1.246-1.189 0-2.284.255-3.285.764-1 .491-1.859 1.228-2.577 2.209-.717.982-1.274 2.181-1.671 3.597-.396 1.416-.595 3.049-.595 4.899v1.19c0 1.454.199 2.822.595 4.106.416 1.265 1.01 2.379 1.784 3.342a8.562 8.562 0 0 0 2.861 2.266c1.133.547 2.416.821 3.851.821 1.851 0 3.418-.378 4.701-1.133 1.284-.755 2.408-1.765 3.371-3.03l3.171 2.52c-.66 1.001-1.501 1.955-2.52 2.861-1.02.906-2.275 1.642-3.767 2.209-1.472.566-3.219.849-5.239.849Z"/>
    <rect width="231" height="93" x="83.5" y="691.5" stroke="#000" stroke-width="9" rx="15.5"/>
    <path fill="#000" d="m199 631-17.321 30h34.642L199 631Zm-3 27v29h6v-29h-6Z"/>
    <rect width="340" height="93" x="29" y="533.5" fill="#FDF8C6" rx="15.5"/>
    <path fill="#000" d="M121.092 596.262c1.246 0 2.398-.255 3.455-.765s1.926-1.208 2.605-2.096a5.837 5.837 0 0 0 1.162-3.087h4.984c-.094 1.813-.708 3.503-1.841 5.07-1.114 1.548-2.577 2.804-4.389 3.766-1.813.944-3.805 1.416-5.976 1.416-2.303 0-4.314-.406-6.032-1.217-1.699-.812-3.116-1.926-4.248-3.342-1.114-1.416-1.954-3.04-2.521-4.871-.547-1.851-.821-3.805-.821-5.863v-1.189c0-2.058.274-4.003.821-5.834.567-1.85 1.407-3.483 2.521-4.899 1.132-1.416 2.549-2.53 4.248-3.342 1.718-.812 3.729-1.218 6.032-1.218 2.398 0 4.493.491 6.287 1.473 1.794.963 3.2 2.284 4.22 3.965 1.038 1.661 1.605 3.549 1.699 5.664h-4.984c-.095-1.265-.453-2.408-1.077-3.427a6.699 6.699 0 0 0-2.492-2.436c-1.038-.623-2.256-.934-3.653-.934-1.605 0-2.955.321-4.05.963a7.097 7.097 0 0 0-2.577 2.548c-.623 1.058-1.076 2.238-1.359 3.54a19.425 19.425 0 0 0-.397 3.937v1.189c0 1.341.132 2.663.397 3.965.264 1.303.708 2.483 1.331 3.54a7.4 7.4 0 0 0 2.577 2.549c1.095.623 2.454.935 4.078.935Zm14.969-11.243v-.652c0-2.209.321-4.257.963-6.145.642-1.907 1.567-3.559 2.775-4.956a12.404 12.404 0 0 1 4.39-3.286c1.718-.792 3.644-1.189 5.777-1.189 2.153 0 4.088.397 5.806 1.189a12.33 12.33 0 0 1 4.418 3.286c1.227 1.397 2.162 3.049 2.804 4.956.641 1.888.962 3.936.962 6.145v.652c0 2.209-.321 4.257-.962 6.145-.642 1.888-1.577 3.54-2.804 4.956a12.846 12.846 0 0 1-4.39 3.285c-1.699.774-3.625 1.161-5.777 1.161s-4.088-.387-5.806-1.161a13.137 13.137 0 0 1-4.418-3.285c-1.208-1.416-2.133-3.068-2.775-4.956-.642-1.888-.963-3.936-.963-6.145Zm5.239-.652v.652c0 1.529.18 2.973.538 4.333.359 1.34.897 2.53 1.615 3.568a8.17 8.17 0 0 0 2.747 2.464c1.095.585 2.369.878 3.823.878 1.435 0 2.69-.293 3.766-.878a7.899 7.899 0 0 0 2.719-2.464c.718-1.038 1.256-2.228 1.614-3.568.378-1.36.567-2.804.567-4.333v-.652c0-1.51-.189-2.936-.567-4.276-.358-1.36-.906-2.558-1.642-3.597a7.813 7.813 0 0 0-2.719-2.492c-1.076-.604-2.341-.906-3.795-.906-1.435 0-2.7.302-3.795.906a8.146 8.146 0 0 0-2.718 2.492c-.718 1.039-1.256 2.237-1.615 3.597a16.51 16.51 0 0 0-.538 4.276Zm46.235 8.553v-23.563h5.267V600h-5.012l-.255-7.08Zm.991-6.457 2.181-.057c0 2.039-.217 3.927-.652 5.664-.415 1.718-1.095 3.21-2.039 4.475-.944 1.265-2.18 2.256-3.71 2.974-1.529.698-3.389 1.047-5.579 1.047-1.491 0-2.86-.217-4.106-.651a8.194 8.194 0 0 1-3.172-2.011c-.888-.906-1.577-2.086-2.068-3.54-.472-1.454-.708-3.2-.708-5.239v-19.768h5.24v19.825c0 1.378.151 2.52.453 3.426.321.888.746 1.596 1.274 2.124.548.51 1.152.869 1.813 1.077a7.148 7.148 0 0 0 2.095.311c2.228 0 3.994-.425 5.296-1.274a7.262 7.262 0 0 0 2.804-3.484c.585-1.472.878-3.105.878-4.899Zm16.215-29.963V600h-5.267v-43.5h5.267Zm25.986 37.553V556.5h5.267V600h-4.814l-.453-5.947Zm-20.618-9.034v-.595c0-2.341.284-4.465.85-6.372.585-1.926 1.407-3.578 2.464-4.956 1.076-1.379 2.351-2.436 3.823-3.172 1.492-.755 3.153-1.133 4.985-1.133 1.925 0 3.606.34 5.041 1.02a9.688 9.688 0 0 1 3.681 2.917c1.02 1.265 1.822 2.794 2.407 4.587.586 1.794.992 3.824 1.218 6.089v2.606c-.207 2.247-.613 4.267-1.218 6.06-.585 1.794-1.387 3.323-2.407 4.588a10.067 10.067 0 0 1-3.681 2.917c-1.454.661-3.153.991-5.098.991-1.794 0-3.436-.387-4.928-1.161-1.472-.774-2.747-1.859-3.823-3.257-1.057-1.397-1.879-3.039-2.464-4.927-.566-1.907-.85-3.975-.85-6.202Zm5.268-.595v.595c0 1.529.151 2.964.453 4.304.321 1.341.812 2.521 1.473 3.54a7.322 7.322 0 0 0 2.52 2.408c1.02.566 2.238.849 3.654.849 1.737 0 3.162-.368 4.276-1.104a8.245 8.245 0 0 0 2.719-2.917 16.906 16.906 0 0 0 1.586-3.937v-6.825a15.178 15.178 0 0 0-.991-3.002 9.263 9.263 0 0 0-1.643-2.606 7.1 7.1 0 0 0-2.464-1.84c-.963-.453-2.105-.68-3.427-.68-1.435 0-2.671.302-3.71.906a7.234 7.234 0 0 0-2.52 2.436c-.661 1.019-1.152 2.209-1.473 3.568-.302 1.341-.453 2.776-.453 4.305Zm32.273-8.525V600h-5.239v-30.643h4.956l.283 6.542Zm-1.246 7.619-2.181-.085c.019-2.096.33-4.031.935-5.806.604-1.794 1.453-3.351 2.548-4.673a11.34 11.34 0 0 1 3.909-3.058c1.529-.737 3.219-1.105 5.069-1.105 1.51 0 2.87.208 4.078.623a7.394 7.394 0 0 1 3.087 1.926c.868.887 1.529 2.039 1.982 3.455.454 1.397.68 3.106.68 5.126V600h-5.267v-20.136c0-1.605-.236-2.888-.708-3.851-.472-.982-1.162-1.69-2.068-2.124-.906-.453-2.02-.68-3.342-.68-1.302 0-2.492.274-3.568.821a8.543 8.543 0 0 0-2.747 2.266 11.397 11.397 0 0 0-1.784 3.313 12.097 12.097 0 0 0-.623 3.909Zm26.58-27.018v3.115l-.595 10.422h-3.653l.028-9.94V556.5h4.22Zm18.028 12.857v4.022h-16.568v-4.022h16.568Zm-10.96-7.448h5.239v30.501c0 1.039.16 1.822.481 2.351.321.528.737.878 1.246 1.048.51.17 1.058.254 1.643.254.434 0 .887-.037 1.359-.113.491-.094.859-.17 1.105-.226l.028 4.276c-.415.132-.963.255-1.642.368-.661.132-1.464.198-2.408.198-1.283 0-2.464-.254-3.54-.764s-1.935-1.36-2.577-2.549c-.623-1.208-.934-2.832-.934-4.871v-30.473Z"/>
    <rect width="340" height="93" x="29" y="533.5" stroke="#000" stroke-width="9" rx="15.5"/>
    <path fill="#000" d="m199 473-17.321 30h34.642L199 473Zm-3 27v29h6v-29h-6Z"/>
    <rect width="245" height="93" x="76.5" y="375.5" fill="#F2CDDE" rx="15.5"/>
    <path fill="#000" d="M163.244 442h-5.239v-33.305c0-2.322.453-4.285 1.359-5.89.906-1.605 2.2-2.823 3.88-3.654 1.68-.83 3.672-1.246 5.975-1.246 1.36 0 2.691.17 3.994.51 1.302.321 2.643.727 4.021 1.218l-.878 4.418a27.485 27.485 0 0 0-3.03-.963c-1.133-.321-2.379-.482-3.738-.482-2.247 0-3.871.51-4.871 1.53-.982 1-1.473 2.52-1.473 4.559V442Zm6.259-30.643v4.022h-16.341v-4.022h16.341Zm10.308 0V442h-5.239v-30.643h5.239Zm12.109 6.542V442h-5.239v-30.643h4.956l.283 6.542Zm-1.246 7.619-2.181-.085c.019-2.096.331-4.031.935-5.806.604-1.794 1.454-3.351 2.549-4.673a11.337 11.337 0 0 1 3.908-3.058c1.529-.737 3.219-1.105 5.069-1.105 1.511 0 2.87.208 4.078.623a7.382 7.382 0 0 1 3.087 1.926c.869.887 1.529 2.039 1.983 3.455.453 1.397.679 3.106.679 5.126V442h-5.267v-20.136c0-1.605-.236-2.888-.708-3.851-.472-.982-1.161-1.69-2.068-2.124-.906-.453-2.02-.68-3.342-.68-1.302 0-2.492.274-3.568.821a8.543 8.543 0 0 0-2.747 2.266 11.397 11.397 0 0 0-1.784 3.313 12.124 12.124 0 0 0-.623 3.909Zm45.64 10.535V398.5h5.267V442h-4.814l-.453-5.947Zm-20.617-9.034v-.595c0-2.341.283-4.465.849-6.372.585-1.926 1.407-3.578 2.464-4.956 1.076-1.379 2.351-2.436 3.823-3.172 1.492-.755 3.153-1.133 4.985-1.133 1.925 0 3.606.34 5.041 1.02a9.688 9.688 0 0 1 3.681 2.917c1.02 1.265 1.822 2.794 2.408 4.587.585 1.794.991 3.824 1.217 6.089v2.606c-.207 2.247-.613 4.267-1.217 6.06-.586 1.794-1.388 3.323-2.408 4.588a10.067 10.067 0 0 1-3.681 2.917c-1.454.661-3.153.991-5.098.991-1.794 0-3.436-.387-4.928-1.161-1.472-.774-2.747-1.859-3.823-3.257-1.057-1.397-1.879-3.039-2.464-4.927-.566-1.907-.849-3.975-.849-6.202Zm5.267-.595v.595c0 1.529.151 2.964.453 4.304.321 1.341.812 2.521 1.473 3.54a7.322 7.322 0 0 0 2.52 2.408c1.02.566 2.238.849 3.654.849 1.737 0 3.162-.368 4.276-1.104a8.245 8.245 0 0 0 2.719-2.917 16.863 16.863 0 0 0 1.586-3.937v-6.825a15.178 15.178 0 0 0-.991-3.002 9.263 9.263 0 0 0-1.643-2.606 7.1 7.1 0 0 0-2.464-1.84c-.963-.453-2.105-.68-3.427-.68-1.435 0-2.671.302-3.71.906a7.234 7.234 0 0 0-2.52 2.436c-.661 1.019-1.152 2.209-1.473 3.568-.302 1.341-.453 2.776-.453 4.305Z"/>
    <rect width="245" height="93" x="76.5" y="375.5" stroke="#000" stroke-width="9" rx="15.5"/>
    <path fill="#000" d="m199 315-17.321 30h34.642L199 315Zm-3 27v29h6v-29h-6Z"/>
    <rect width="374" height="93" x="12" y="218.5" fill="#D1E6D1" rx="15.5"/>
    <path fill="#000" d="M104.375 254.357v4.022H87.808v-4.022h16.567Zm-10.96-7.448h5.24v30.501c0 1.039.16 1.822.48 2.351.322.528.737.878 1.247 1.048.51.17 1.057.254 1.642.254a8.55 8.55 0 0 0 1.36-.113c.491-.094.859-.17 1.104-.226l.029 4.276a12.25 12.25 0 0 1-1.643.368c-.661.132-1.463.198-2.407.198-1.284 0-2.464-.254-3.54-.764s-1.935-1.36-2.577-2.549c-.623-1.208-.935-2.832-.935-4.871v-30.473Zm20.605-5.409V285h-5.239v-43.5h5.239Zm-1.246 27.018-2.181-.085c.019-2.096.33-4.031.935-5.806.604-1.794 1.453-3.351 2.548-4.673a11.34 11.34 0 0 1 3.909-3.058c1.529-.737 3.219-1.105 5.069-1.105 1.51 0 2.87.208 4.078.623a7.394 7.394 0 0 1 3.087 1.926c.869.887 1.529 2.039 1.982 3.455.454 1.397.68 3.106.68 5.126V285h-5.267v-20.136c0-1.605-.236-2.888-.708-3.851-.472-.982-1.162-1.69-2.068-2.124-.906-.453-2.02-.68-3.342-.68-1.302 0-2.492.274-3.568.821a8.543 8.543 0 0 0-2.747 2.266 11.397 11.397 0 0 0-1.784 3.313 12.097 12.097 0 0 0-.623 3.909Zm31.904-14.161V285h-5.267v-30.643h5.267Zm-5.664-8.128c0-.849.255-1.567.765-2.152.528-.585 1.303-.878 2.322-.878 1.001 0 1.765.293 2.294.878.548.585.821 1.303.821 2.152a2.96 2.96 0 0 1-.821 2.096c-.529.567-1.293.85-2.294.85-1.019 0-1.794-.283-2.322-.85-.51-.585-.765-1.284-.765-2.096Zm30.177 30.643a4.41 4.41 0 0 0-.51-2.096c-.321-.66-.991-1.255-2.01-1.784-1.001-.547-2.511-1.019-4.532-1.416-1.699-.359-3.238-.783-4.616-1.274-1.359-.491-2.52-1.086-3.483-1.784-.944-.699-1.671-1.52-2.181-2.464s-.765-2.049-.765-3.314c0-1.208.265-2.35.793-3.427.548-1.076 1.313-2.029 2.294-2.86 1.001-.831 2.2-1.482 3.597-1.954 1.397-.472 2.955-.708 4.673-.708 2.454 0 4.55.434 6.287 1.303 1.737.868 3.068 2.029 3.993 3.483.925 1.435 1.388 3.03 1.388 4.786h-5.239c0-.849-.255-1.671-.765-2.464-.491-.811-1.218-1.482-2.181-2.01-.944-.529-2.105-.793-3.483-.793-1.454 0-2.634.226-3.54.679-.887.435-1.539.992-1.954 1.671a4.203 4.203 0 0 0-.595 2.153c0 .566.094 1.076.283 1.529.208.434.567.84 1.076 1.218.51.358 1.228.698 2.153 1.019.925.321 2.105.642 3.54.963 2.511.567 4.578 1.246 6.202 2.039 1.624.793 2.832 1.765 3.625 2.917.793 1.152 1.189 2.549 1.189 4.192 0 1.34-.283 2.567-.849 3.681-.548 1.114-1.35 2.077-2.407 2.889-1.039.793-2.285 1.416-3.739 1.869-1.435.434-3.049.651-4.842.651-2.7 0-4.985-.481-6.854-1.444-1.869-.963-3.285-2.209-4.248-3.738-.963-1.53-1.444-3.144-1.444-4.843h5.267c.076 1.435.491 2.577 1.246 3.427a6.363 6.363 0 0 0 2.776 1.784c1.095.34 2.18.51 3.257.51 1.434 0 2.633-.189 3.596-.567.982-.377 1.728-.896 2.238-1.557a3.614 3.614 0 0 0 .764-2.266Zm28.267-16.624v36.533h-5.267v-42.424h4.814l.453 5.891Zm20.646 9.176v.595c0 2.227-.265 4.295-.793 6.202-.529 1.888-1.303 3.53-2.322 4.927-1.001 1.398-2.238 2.483-3.71 3.257-1.473.774-3.163 1.161-5.07 1.161-1.944 0-3.663-.321-5.154-.962a10.164 10.164 0 0 1-3.795-2.804c-1.038-1.227-1.869-2.7-2.492-4.418-.604-1.718-1.02-3.653-1.246-5.806v-3.172c.226-2.265.651-4.295 1.274-6.089.623-1.793 1.444-3.322 2.464-4.587a10.102 10.102 0 0 1 3.767-2.917c1.472-.68 3.171-1.02 5.097-1.02 1.926 0 3.635.378 5.126 1.133 1.492.736 2.747 1.793 3.767 3.172 1.019 1.378 1.784 3.03 2.294 4.956.528 1.907.793 4.031.793 6.372Zm-5.268.595v-.595c0-1.529-.16-2.964-.481-4.305-.321-1.359-.822-2.549-1.501-3.568a7.157 7.157 0 0 0-2.549-2.436c-1.038-.604-2.275-.906-3.71-.906-1.322 0-2.473.227-3.455.68a7.47 7.47 0 0 0-2.464 1.84 9.767 9.767 0 0 0-1.671 2.606 14.957 14.957 0 0 0-.934 3.002v7.335a16.37 16.37 0 0 0 1.585 3.738 8.224 8.224 0 0 0 2.719 2.804c1.133.698 2.559 1.048 4.277 1.048 1.416 0 2.633-.293 3.653-.878a7.405 7.405 0 0 0 2.549-2.464c.679-1.038 1.18-2.228 1.501-3.568.321-1.36.481-2.804.481-4.333Zm28.28 9.742v-15.775c0-1.208-.246-2.256-.737-3.143-.472-.906-1.189-1.605-2.152-2.096-.963-.491-2.152-.736-3.568-.736-1.322 0-2.483.226-3.484.679-.982.454-1.756 1.048-2.322 1.785-.548.736-.821 1.529-.821 2.379h-5.24c0-1.096.284-2.181.85-3.257.566-1.076 1.378-2.049 2.436-2.917 1.076-.888 2.36-1.586 3.851-2.096 1.511-.529 3.191-.793 5.041-.793 2.228 0 4.192.378 5.891 1.133 1.718.755 3.058 1.897 4.021 3.427.982 1.51 1.473 3.407 1.473 5.692v14.273c0 1.02.085 2.106.255 3.257.189 1.152.462 2.143.821 2.974V285h-5.466c-.264-.604-.472-1.407-.623-2.407a19.425 19.425 0 0 1-.226-2.832Zm.906-13.339.057 3.682h-5.296c-1.492 0-2.823.122-3.993.368-1.171.226-2.153.576-2.946 1.048-.793.472-1.397 1.066-1.812 1.784-.416.698-.623 1.52-.623 2.464 0 .962.217 1.84.651 2.633.434.793 1.086 1.426 1.954 1.898.887.453 1.973.68 3.257.68 1.605 0 3.021-.34 4.248-1.02 1.227-.68 2.2-1.51 2.917-2.492.736-.982 1.133-1.935 1.189-2.861l2.238 2.521c-.132.793-.491 1.671-1.076 2.634-.586.963-1.369 1.888-2.351 2.775-.963.869-2.115 1.596-3.455 2.181-1.322.566-2.813.849-4.475.849-2.077 0-3.898-.406-5.466-1.217-1.548-.812-2.756-1.898-3.625-3.257-.849-1.378-1.274-2.917-1.274-4.616 0-1.643.321-3.087.963-4.333.642-1.265 1.567-2.313 2.775-3.144 1.209-.85 2.662-1.492 4.362-1.926 1.699-.434 3.596-.651 5.692-.651h6.089Zm30.687-12.065h4.758v29.992c0 2.7-.548 5.003-1.643 6.91a10.698 10.698 0 0 1-4.588 4.333c-1.945 1-4.191 1.501-6.74 1.501-1.057 0-2.304-.17-3.738-.51-1.416-.321-2.814-.878-4.192-1.671a10.489 10.489 0 0 1-3.427-3.143l2.747-3.116c1.284 1.548 2.625 2.625 4.022 3.229 1.416.604 2.813.906 4.191.906 1.662 0 3.097-.311 4.305-.934 1.208-.624 2.143-1.549 2.804-2.776.679-1.208 1.019-2.7 1.019-4.474v-23.506l.482-6.741Zm-21.099 15.662v-.595c0-2.341.274-4.465.821-6.372.567-1.926 1.369-3.578 2.408-4.956 1.057-1.379 2.331-2.436 3.823-3.172 1.491-.755 3.172-1.133 5.041-1.133 1.926 0 3.606.34 5.041 1.02a9.691 9.691 0 0 1 3.682 2.917c1.019 1.265 1.821 2.794 2.407 4.587.585 1.794.991 3.824 1.218 6.089v2.606c-.208 2.247-.614 4.267-1.218 6.06-.586 1.794-1.388 3.323-2.407 4.588a10.07 10.07 0 0 1-3.682 2.917c-1.454.661-3.153.991-5.098.991-1.831 0-3.493-.387-4.984-1.161-1.473-.774-2.738-1.859-3.795-3.257-1.057-1.397-1.869-3.039-2.436-4.927-.547-1.907-.821-3.975-.821-6.202Zm5.239-.595v.595c0 1.529.151 2.964.453 4.304.321 1.341.803 2.521 1.445 3.54a7.322 7.322 0 0 0 2.52 2.408c1.02.566 2.238.849 3.654.849 1.737 0 3.171-.368 4.304-1.104a8.004 8.004 0 0 0 2.691-2.917 16.906 16.906 0 0 0 1.586-3.937v-6.825a13.959 13.959 0 0 0-.963-3.002 9.263 9.263 0 0 0-1.643-2.606 7.1 7.1 0 0 0-2.464-1.84c-.981-.453-2.133-.68-3.455-.68-1.435 0-2.671.302-3.71.906a7.234 7.234 0 0 0-2.52 2.436c-.642 1.019-1.124 2.209-1.445 3.568-.302 1.341-.453 2.776-.453 4.305Zm39.551 16.142c-2.133 0-4.068-.358-5.805-1.076a13.165 13.165 0 0 1-4.447-3.087c-1.227-1.321-2.171-2.888-2.832-4.701-.66-1.812-.991-3.795-.991-5.947v-1.19c0-2.492.368-4.71 1.105-6.655.736-1.963 1.737-3.625 3.002-4.984 1.265-1.36 2.699-2.389 4.304-3.087a12.361 12.361 0 0 1 4.985-1.048c2.19 0 4.078.378 5.664 1.133 1.605.755 2.917 1.812 3.936 3.172 1.02 1.34 1.775 2.926 2.266 4.758.491 1.812.736 3.794.736 5.947v2.35H285.44v-4.276h17.644v-.396a13.077 13.077 0 0 0-.85-3.965 7.131 7.131 0 0 0-2.265-3.172c-1.039-.831-2.455-1.246-4.248-1.246-1.19 0-2.285.255-3.285.764-1.001.491-1.86 1.228-2.578 2.209-.717.982-1.274 2.181-1.671 3.597-.396 1.416-.594 3.049-.594 4.899v1.19c0 1.454.198 2.822.594 4.106.416 1.265 1.011 2.379 1.785 3.342a8.558 8.558 0 0 0 2.86 2.266c1.133.547 2.417.821 3.852.821 1.85 0 3.417-.378 4.701-1.133 1.284-.755 2.407-1.765 3.37-3.03l3.172 2.52c-.661 1.001-1.501 1.955-2.521 2.861-1.019.906-2.275 1.642-3.766 2.209-1.473.566-3.219.849-5.24.849Z"/>
    <rect width="374" height="93" x="12" y="218.5" stroke="#000" stroke-width="9" rx="15.5"/>
    <path fill="#000" d="m199 158-17.321 30h34.642L199 158Zm-3 27v29h6v-29h-6Z"/>
    <rect width="395" height="93" x="132.5" y="60.5" fill="#C4BFDC" rx="15.5"/>
    <path fill="#000" d="M244.522 85.766V127h-5.494L218.27 95.196V127h-5.466V85.766h5.466l20.843 31.888V85.766h5.409Zm5.765 26.253v-.652c0-2.209.321-4.257.963-6.145.642-1.907 1.567-3.559 2.776-4.956a12.375 12.375 0 0 1 4.389-3.285c1.718-.793 3.644-1.19 5.778-1.19 2.152 0 4.087.397 5.805 1.19 1.737.774 3.21 1.869 4.418 3.285 1.228 1.397 2.162 3.049 2.804 4.956.642 1.888.963 3.936.963 6.145v.652c0 2.209-.321 4.257-.963 6.145-.642 1.888-1.576 3.54-2.804 4.956a12.842 12.842 0 0 1-4.389 3.285c-1.7.774-3.625 1.161-5.778 1.161-2.152 0-4.087-.387-5.805-1.161a13.137 13.137 0 0 1-4.418-3.285c-1.209-1.416-2.134-3.068-2.776-4.956-.642-1.888-.963-3.936-.963-6.145Zm5.24-.652v.652c0 1.529.179 2.973.538 4.333.358 1.34.897 2.53 1.614 3.568a8.17 8.17 0 0 0 2.747 2.464c1.095.585 2.37.878 3.823.878 1.435 0 2.691-.293 3.767-.878a7.916 7.916 0 0 0 2.719-2.464c.717-1.038 1.255-2.228 1.614-3.568.378-1.36.566-2.804.566-4.333v-.652c0-1.51-.188-2.936-.566-4.276-.359-1.36-.906-2.558-1.643-3.597a7.801 7.801 0 0 0-2.718-2.492c-1.077-.604-2.342-.906-3.795-.906-1.435 0-2.7.302-3.795.906a8.149 8.149 0 0 0-2.719 2.492c-.717 1.039-1.256 2.237-1.614 3.597a16.468 16.468 0 0 0-.538 4.276Zm40.315-15.01v4.022h-16.567v-4.022h16.567Zm-10.96-7.448h5.24v30.501c0 1.039.16 1.822.481 2.351.321.528.736.878 1.246 1.048a5.16 5.16 0 0 0 1.643.254c.434 0 .887-.037 1.359-.113.491-.094.859-.17 1.105-.226l.028 4.276c-.415.132-.963.255-1.643.368-.66.132-1.463.198-2.407.198-1.284 0-2.464-.254-3.54-.764s-1.935-1.36-2.577-2.549c-.623-1.208-.935-2.832-.935-4.871V88.909ZM320.711 127h-5.239V93.129c0-2.21.396-4.069 1.189-5.58.812-1.529 1.973-2.68 3.484-3.454 1.51-.793 3.304-1.19 5.38-1.19.605 0 1.209.038 1.813.114.623.075 1.227.188 1.812.34l-.283 4.276a8.661 8.661 0 0 0-1.359-.199 19.234 19.234 0 0 0-1.473-.056c-1.114 0-2.077.226-2.889.68-.792.434-1.397 1.076-1.812 1.925-.415.85-.623 1.898-.623 3.144V127Zm6.514-30.643v4.022h-16.596v-4.022h16.596Zm2.706 15.662v-.652c0-2.209.321-4.257.963-6.145.642-1.907 1.567-3.559 2.775-4.956a12.387 12.387 0 0 1 4.39-3.285c1.718-.793 3.644-1.19 5.777-1.19 2.153 0 4.088.397 5.806 1.19a12.322 12.322 0 0 1 4.418 3.285c1.227 1.397 2.162 3.049 2.804 4.956.641 1.888.962 3.936.962 6.145v.652c0 2.209-.321 4.257-.962 6.145-.642 1.888-1.577 3.54-2.804 4.956a12.856 12.856 0 0 1-4.39 3.285c-1.699.774-3.625 1.161-5.777 1.161-2.153 0-4.088-.387-5.806-1.161a13.137 13.137 0 0 1-4.418-3.285c-1.208-1.416-2.133-3.068-2.775-4.956-.642-1.888-.963-3.936-.963-6.145Zm5.239-.652v.652c0 1.529.18 2.973.538 4.333.359 1.34.897 2.53 1.615 3.568a8.17 8.17 0 0 0 2.747 2.464c1.095.585 2.369.878 3.823.878 1.435 0 2.69-.293 3.766-.878a7.907 7.907 0 0 0 2.719-2.464c.718-1.038 1.256-2.228 1.614-3.568.378-1.36.567-2.804.567-4.333v-.652c0-1.51-.189-2.936-.567-4.276-.358-1.36-.906-2.558-1.642-3.597a7.813 7.813 0 0 0-2.719-2.492c-1.076-.604-2.341-.906-3.795-.906-1.435 0-2.7.302-3.795.906a8.146 8.146 0 0 0-2.718 2.492c-.718 1.039-1.256 2.237-1.615 3.597a16.51 16.51 0 0 0-.538 4.276Zm46.235 8.553V96.357h5.267V127h-5.012l-.255-7.08Zm.991-6.457 2.181-.057c0 2.039-.217 3.927-.652 5.664-.415 1.718-1.095 3.21-2.039 4.475-.944 1.265-2.18 2.256-3.71 2.974-1.529.698-3.389 1.047-5.579 1.047-1.491 0-2.86-.217-4.106-.651a8.187 8.187 0 0 1-3.172-2.011c-.888-.906-1.577-2.086-2.068-3.54-.472-1.454-.708-3.2-.708-5.239V96.357h5.24v19.825c0 1.378.151 2.52.453 3.426.321.888.746 1.596 1.274 2.124.548.51 1.152.869 1.813 1.077a7.148 7.148 0 0 0 2.095.311c2.228 0 3.994-.425 5.296-1.274a7.262 7.262 0 0 0 2.804-3.484c.585-1.472.878-3.105.878-4.899Zm15.762-10.564V127h-5.239V96.357h4.956l.283 6.542Zm-1.246 7.619-2.181-.085c.019-2.096.331-4.031.935-5.806.604-1.794 1.454-3.351 2.549-4.673a11.35 11.35 0 0 1 3.908-3.058c1.529-.737 3.219-1.105 5.069-1.105 1.511 0 2.87.208 4.078.623a7.382 7.382 0 0 1 3.087 1.926c.869.887 1.529 2.039 1.983 3.455.453 1.397.679 3.106.679 5.126V127h-5.267v-20.136c0-1.605-.236-2.888-.708-3.851-.472-.982-1.161-1.69-2.068-2.124-.906-.453-2.02-.68-3.342-.68-1.302 0-2.492.274-3.568.821a8.543 8.543 0 0 0-2.747 2.266 11.397 11.397 0 0 0-1.784 3.313 12.124 12.124 0 0 0-.623 3.909Zm45.64 10.535V83.5h5.267V127h-4.814l-.453-5.947Zm-20.617-9.034v-.595c0-2.341.283-4.465.849-6.372.585-1.926 1.407-3.578 2.464-4.956 1.076-1.379 2.351-2.436 3.823-3.172 1.492-.755 3.153-1.133 4.985-1.133 1.925 0 3.606.34 5.041 1.02a9.699 9.699 0 0 1 3.681 2.916c1.02 1.266 1.822 2.795 2.408 4.588.585 1.794.991 3.824 1.217 6.089v2.606c-.207 2.247-.613 4.267-1.217 6.06-.586 1.794-1.388 3.323-2.408 4.588a10.067 10.067 0 0 1-3.681 2.917c-1.454.661-3.153.991-5.098.991-1.794 0-3.436-.387-4.928-1.161-1.472-.774-2.747-1.859-3.823-3.257-1.057-1.397-1.879-3.039-2.464-4.927-.566-1.907-.849-3.975-.849-6.202Zm5.267-.595v.595c0 1.529.151 2.964.453 4.304.321 1.341.812 2.521 1.473 3.54a7.322 7.322 0 0 0 2.52 2.408c1.02.566 2.238.849 3.654.849 1.737 0 3.162-.368 4.276-1.104a8.245 8.245 0 0 0 2.719-2.917 16.863 16.863 0 0 0 1.586-3.937v-6.825a15.178 15.178 0 0 0-.991-3.002 9.263 9.263 0 0 0-1.643-2.606 7.1 7.1 0 0 0-2.464-1.84c-.963-.453-2.105-.68-3.427-.68-1.435 0-2.671.302-3.71.906a7.234 7.234 0 0 0-2.52 2.436c-.661 1.019-1.152 2.209-1.473 3.568-.302 1.341-.453 2.776-.453 4.305Z"/>
    <rect width="395" height="93" x="132.5" y="60.5" stroke="#000" stroke-width="9" rx="15.5"/>
    <path fill="#000" d="m330 0-17.321 30h34.642L330 0Zm-3 27v29h6V27h-6Z"/>
</svg>