<svg xmlns="http://www.w3.org/2000/svg" id="_a0" viewBox="0 0 704 740" fill="none"><title>kernl</title><desc>Kernel fusion efficiency</desc><style>
@keyframes a0_o { 0% { opacity: 1; } 66.129% { opacity: 1; } 67.742% { opacity: 0; } 100% { opacity: 0; } }
@keyframes a1_o { 0% { opacity: 0; } 70.968% { opacity: 0; } 74.194% { opacity: 1; } 100% { opacity: 1; } }
@keyframes a2_o { 0% { opacity: 1; } 66.129% { opacity: 1; } 67.742% { opacity: 0; } 100% { opacity: 0; } }
@keyframes a4_t { 0% { transform: translate(458.5px,92px); animation-timing-function: cubic-bezier(.2,.8,.4,1); } 6.452% { transform: translate(297.5px,92px); animation-timing-function: cubic-bezier(.2,.8,.4,1); } 12.903% { transform: translate(297.5px,276px); animation-timing-function: cubic-bezier(.2,.8,.4,1); } 19.355% { transform: translate(459.4px,276px); } 20.968% { transform: translate(459.4px,325px); animation-timing-function: cubic-bezier(.2,.8,.4,1); } 27.419% { transform: translate(299.3px,325px); animation-timing-function: cubic-bezier(.8,0,.2,1); } 32.258% { transform: translate(299.3px,412px); animation-timing-function: cubic-bezier(.8,0,.2,1); } 38.71% { transform: translate(459.4px,412px); } 40.322% { transform: translate(459.4px,461px); animation-timing-function: cubic-bezier(.8,0,.2,1); } 46.774% { transform: translate(297.4px,461px); animation-timing-function: cubic-bezier(.8,0,.2,1); } 53.335% { transform: translate(297.4px,648px); animation-timing-function: cubic-bezier(.8,0,.2,1); } 59.677% { transform: translate(459.4px,648px); } 74.194% { transform: translate(459.4px,92.9px); animation-timing-function: cubic-bezier(.8,0,.2,1); } 80.645% { transform: translate(297.3px,92.9px); animation-timing-function: cubic-bezier(.8,0,.2,1); } 87.097% { transform: translate(297.3px,648.6px); animation-timing-function: cubic-bezier(.8,0,.2,1); } 93.548% { transform: translate(459.4px,648.6px); } 100% { transform: translate(459.4px,648.6px); } }
@keyframes a3_t { 0% { transform: scale(1,1) translate(-12px,-12px); } 9.677% { transform: scale(1,1) translate(-12px,-12px); } 12.903% { transform: scale(1.2,1.2) translate(-12px,-12px); } 100% { transform: scale(1.2,1.2) translate(-12px,-12px); } }
@keyframes a5_t { 0% { transform: translate(244.5px,479.5px); } 67.742% { transform: translate(244.5px,479.5px); animation-timing-function: cubic-bezier(.8,0,.2,1); } 74.194% { transform: translate(244.5px,343.5px); } 100% { transform: translate(244.5px,343.5px); } }
@keyframes a5_o { 0% { opacity: 1; } 70.968% { opacity: 1; } 74.194% { opacity: 0; } 100% { opacity: 0; } }
@keyframes a6_t { 0% { transform: translate(299px,506px) scale(1,1) translate(-54.5px,-26.5px); } 49.355% { transform: translate(299px,506px) scale(1,1) translate(-54.5px,-26.5px); animation-timing-function: cubic-bezier(.6,0,.4,1); } 50.213% { transform: translate(299px,506px) scale(1.2,1.2) translate(-54.5px,-26.5px); animation-timing-function: cubic-bezier(.6,0,.4,1); } 50.968% { transform: translate(299px,506px) scale(1,1) translate(-54.5px,-26.5px); } 100% { transform: translate(299px,506px) scale(1,1) translate(-54.5px,-26.5px); } }
@keyframes a6_v { 0% { visibility: hidden; animation-timing-function: steps(1); } 49.355% { visibility: visible; animation-timing-function: steps(1); } 50.968% { visibility: hidden; animation-timing-function: steps(1); } 100% { visibility: hidden; animation-timing-function: steps(1); } }
@keyframes a7_o { 0% { opacity: 1; } 70.968% { opacity: 1; } 74.194% { opacity: 0; } 100% { opacity: 0; } }
@keyframes a8_t { 0% { transform: translate(299px,370px) scale(1,1) translate(-54.5px,-26.5px); } 29.677% { transform: translate(299px,370px) scale(1,1) translate(-54.5px,-26.5px); animation-timing-function: cubic-bezier(.6,0,.4,1); } 30.535% { transform: translate(299px,370px) scale(1.2,1.2) translate(-54.5px,-26.5px); animation-timing-function: cubic-bezier(.6,0,.4,1); } 31.29% { transform: translate(299px,370px) scale(1,1) translate(-54.5px,-26.5px); } 100% { transform: translate(299px,370px) scale(1,1) translate(-54.5px,-26.5px); } }
@keyframes a8_v { 0% { visibility: hidden; animation-timing-function: steps(1); } 29.677% { visibility: visible; animation-timing-function: steps(1); } 31.29% { visibility: hidden; animation-timing-function: steps(1); } 100% { visibility: hidden; animation-timing-function: steps(1); } }
@keyframes a9_t { 0% { transform: translate(244.5px,207.5px); } 67.742% { transform: translate(244.5px,207.5px); animation-timing-function: cubic-bezier(.8,0,.2,1); } 74.194% { transform: translate(244.5px,343.5px); } 100% { transform: translate(244.5px,343.5px); } }
@keyframes a9_o { 0% { opacity: 1; } 70.968% { opacity: 1; } 74.194% { opacity: 0; } 100% { opacity: 0; } }
@keyframes a10_t { 0% { transform: translate(299px,234px) scale(1,1) translate(-56px,-28px); } 8.065% { transform: translate(299px,234px) scale(1,1) translate(-56px,-28px); animation-timing-function: cubic-bezier(.6,0,.4,1); } 8.871% { transform: translate(299px,234px) scale(1.2,1.2) translate(-56px,-28px); animation-timing-function: cubic-bezier(.6,0,.4,1); } 9.677% { transform: translate(299px,234px) scale(1,1) translate(-56px,-28px); } 100% { transform: translate(299px,234px) scale(1,1) translate(-56px,-28px); } }
@keyframes a10_v { 0% { visibility: hidden; animation-timing-function: steps(1); } 8.065% { visibility: visible; animation-timing-function: steps(1); } 9.677% { visibility: hidden; animation-timing-function: steps(1); } 100% { visibility: hidden; animation-timing-function: steps(1); } }
@keyframes a11_t { 0% { transform: translate(299px,370px) scale(1,1) translate(-54.5px,-26.5px); } 83.71% { transform: translate(299px,370px) scale(1,1) translate(-54.5px,-26.5px); animation-timing-function: cubic-bezier(.6,0,.4,1); } 84.516% { transform: translate(299px,370px) scale(1.2,1.2) translate(-54.5px,-26.5px); animation-timing-function: cubic-bezier(.6,0,.4,1); } 85.323% { transform: translate(299px,370px) scale(1,1) translate(-54.5px,-26.5px); } 100% { transform: translate(299px,370px) scale(1,1) translate(-54.5px,-26.5px); } }
@keyframes a11_o { 0% { opacity: 0; } 67.742% { opacity: 0; } 74.194% { opacity: 1; } 100% { opacity: 1; } }
@keyframes a12_f { 0% { fill: #fff; } 100% { fill: #fff; } }
@keyframes a13_t { 0% { transform: translate(328px,397px) scale(1,1) translate(-15.5px,-147.5px); } 59.677% { transform: translate(328px,397px) scale(1.5,1.5) translate(-15.5px,-147.5px); animation-timing-function: cubic-bezier(.9,0,.7,.2); } 66.129% { transform: translate(328px,397px) scale(1,1) translate(-15.5px,-147.5px); } 100% { transform: translate(328px,397px) scale(1,1) translate(-15.5px,-147.5px); } }
@keyframes a13_v { 0% { visibility: hidden; animation-timing-function: steps(1); } 59.677% { visibility: visible; animation-timing-function: steps(1); } 100% { visibility: visible; animation-timing-function: steps(1); } }
@keyframes a13_o { 0% { opacity: 0; } 59.677% { opacity: 0; animation-timing-function: cubic-bezier(.9,0,.7,.2); } 66.129% { opacity: 1; } 100% { opacity: 1; } }
@keyframes a14_t { 0% { transform: translate(0px,272px); } 67.852% { transform: translate(0px,272px); animation-timing-function: cubic-bezier(.8,0,.2,1); } 74.194% { transform: translate(0px,136px); } 100% { transform: translate(0px,136px); } }
@keyframes a15_t { 0% { transform: translate(0px,0px); } 67.852% { transform: translate(0px,0px); animation-timing-function: cubic-bezier(.8,0,.2,1); } 74.194% { transform: translate(0px,136px); } 100% { transform: translate(0px,136px); } }
</style><g transform="translate(299,92)" style="animation: 15.5s linear infinite both a0_o;"><path d="M0 369h146" stroke="#b6bcf6" stroke-width="2" stroke-dasharray="4 4"/><path d="M0 320h146" stroke="#b6bcf6" stroke-width="2" stroke-dasharray="4 4"/><path d="M0 233h146" stroke="#b6bcf6" stroke-width="2" stroke-dasharray="4 4"/><path d="M0 184h146" stroke="#b6bcf6" stroke-width="2" stroke-dasharray="4 4"/></g><path d="M299 648h146" stroke="#b6bcf6" stroke-width="2" stroke-dasharray="4 4"/><path d="M299 92h146" stroke="#b6bcf6" stroke-width="2" stroke-dasharray="4 4"/><rect x="233.5" y="201.5" width="131" height="337" rx="9.5" fill="#fff" stroke="#b6bcf6" stroke-width="3"/><path d="M146.1 519.9c0 .8-0.1 1.5-0.4 2c-0.2 .6-0.6 1.1-1.1 1.5c-0.5 .3-1 .5-1.7 .5v-2c.5 0 .9-0.2 1.2-0.5c.3-0.4 .5-0.9 .5-1.5c0-0.6-0.2-1.1-0.5-1.4c-0.3-0.4-0.7-0.6-1.2-0.6c-0.3 0-0.6 .1-0.9 .4c-0.2 .2-0.4 .5-0.5 .8c-0.1 .3-0.3 .8-0.4 1.3c-0.2 .8-0.4 1.3-0.6 1.8c-0.2 .5-0.5 .8-0.9 1.2c-0.4 .3-1 .4-1.7 .4c-0.6 0-1.2-0.1-1.7-0.4c-0.5-0.4-0.8-0.8-1.1-1.4c-0.2-0.6-0.4-1.2-0.4-2c0-1.1 .3-1.9 .9-2.6c.5-0.7 1.2-1.1 2.2-1.2v2c-0.4 .1-0.8 .3-1.1 .6c-0.3 .4-0.4 .8-0.4 1.4c0 .5 .1 1 .4 1.3c.3 .3 .6 .5 1.1 .5c.4 0 .7-0.1 .9-0.3c.2-0.2 .4-0.5 .5-0.8c.1-0.3 .3-0.8 .4-1.3c.2-0.8 .4-1.4 .6-1.8c.2-0.5 .5-0.9 1-1.2c.4-0.3 .9-0.5 1.6-0.5c.6 0 1.1 .1 1.6 .5c.5 .3 1 .7 1.3 1.3c.3 .6 .4 1.2 .4 2Zm-10.1-6.9c0 .3-0.1 .6-0.3 .8c-0.2 .3-0.5 .4-0.9 .4c-0.3 0-0.6-0.1-0.8-0.4c-0.2-0.2-0.3-0.5-0.3-0.8c0-0.3 .1-0.6 .3-0.8c.2-0.2 .5-0.3 .8-0.3c.4 0 .7 .1 .9 .3c.2 .2 .3 .5 .3 .8Zm1.2-0.9h8.8v1.8h-8.8v-1.8Zm-0.2-13.1c0-0.6 .2-1.3 .5-1.8c.3-0.6 .7-1 1.3-1.3c.5-0.3 1.2-0.5 2-0.5h5.2v1.8h-4.9c-0.8 0-1.4 .2-1.8 .6c-0.5 .4-0.7 1-0.7 1.6c0 .7 .2 1.3 .7 1.7c.4 .4 1 .6 1.8 .6h4.9v1.8h-4.9c-0.8 0-1.4 .2-1.8 .6c-0.5 .4-0.7 .9-0.7 1.6c0 .7 .2 1.2 .7 1.6c.4 .4 1 .6 1.8 .6h4.9v1.8h-8.8v-1.8h1c-0.4-0.3-0.7-0.7-0.9-1.1c-0.2-0.5-0.3-1-0.3-1.5c0-0.7 .2-1.3 .5-1.9c.3-0.6 .7-1 1.3-1.3c-0.5-0.2-1-0.7-1.3-1.2c-0.3-0.6-0.5-1.2-0.5-1.9Zm1.5-7.7c-0.4-0.3-0.8-0.8-1-1.3c-0.3-0.5-0.5-1.1-0.5-1.8c0-0.8 .2-1.5 .6-2.1c.4-0.6 .9-1.1 1.6-1.5c.7-0.4 1.5-0.5 2.4-0.5c.8 0 1.6 .1 2.3 .5c.7 .4 1.3 .9 1.7 1.5c.4 .6 .5 1.3 .5 2.1c0 .7-0.1 1.3-0.4 1.8c-0.2 .5-0.6 .9-1 1.3h5.5v1.8h-13v-1.8h1.3Zm3.1-5.4c-0.7 0-1.2 .1-1.6 .4c-0.5 .2-0.8 .6-1 1c-0.3 .4-0.4 .8-0.4 1.3c0 .5 .1 .9 .4 1.3c.2 .4 .6 .7 1 1c.4 .2 1 .4 1.6 .4c.6 0 1.1-0.1 1.6-0.4c.4-0.3 .8-0.6 1-1c.2-0.4 .4-0.8 .4-1.3c0-0.5-0.2-0.9-0.4-1.3c-0.2-0.4-0.6-0.8-1-1c-0.5-0.3-1-0.4-1.6-0.4Zm-7.4-5.5h11.8v1.9h-11.8v-1.9Zm1.8-3.3c0 .3-0.1 .6-0.3 .8c-0.2 .3-0.5 .4-0.9 .4c-0.3 0-0.6-0.1-0.8-0.4c-0.2-0.2-0.3-0.5-0.3-0.8c0-0.3 .1-0.6 .3-0.8c.2-0.2 .5-0.3 .8-0.3c.4 0 .7 .1 .9 .3c.2 .2 .3 .5 .3 .8Zm1.2-0.9h8.8v1.8h-8.8v-1.8Zm1.5-6.1v1.7h7.3v1.8h-7.3v1h-1.5v-1h-0.6c-1.1 0-1.8-0.3-2.2-0.8c-0.5-0.6-0.8-1.4-0.8-2.6h1.6c0 .6 .1 1 .3 1.2c.2 .2 .5 .4 1.1 .4h.6v-1.7h1.5Zm-2.7-2.5c0 .3-0.1 .6-0.3 .8c-0.2 .2-0.5 .3-0.9 .3c-0.3 0-0.6-0.1-0.8-0.3c-0.2-0.2-0.3-0.5-0.3-0.8c0-0.3 .1-0.6 .3-0.8c.2-0.3 .5-0.4 .8-0.4c.4 0 .7 .1 .9 .4c.2 .2 .3 .5 .3 .8Zm1.2-0.9h8.8v1.8h-8.8v-1.8Zm4.2-10.5c.3 0 .6 0 .9 .1v6.7c.7 0 1.2-0.3 1.7-0.8c.4-0.4 .6-1 .6-1.7c0-1-0.4-1.7-1.2-2.1v-2c.8 .3 1.5 .8 2 1.5c.5 .7 .7 1.6 .7 2.6c0 .8-0.1 1.6-0.5 2.3c-0.4 .6-0.9 1.1-1.6 1.5c-0.7 .4-1.5 .6-2.4 .6c-0.9 0-1.7-0.2-2.4-0.6c-0.7-0.3-1.2-0.8-1.6-1.5c-0.4-0.7-0.6-1.4-0.6-2.3c0-0.8 .2-1.6 .6-2.2c.3-0.7 .9-1.2 1.5-1.6c.7-0.3 1.4-0.5 2.3-0.5Zm-0.6 1.9c-0.7 0-1.2 .3-1.6 .7c-0.4 .5-0.6 1.1-0.6 1.8c0 .6 .2 1.1 .6 1.6c.4 .4 .9 .7 1.6 .8v-4.9Zm.8-3.1c-0.9 0-1.7-0.2-2.4-0.5c-0.7-0.4-1.2-0.9-1.6-1.5c-0.4-0.7-0.6-1.4-0.6-2.2c0-0.5 .2-1.1 .4-1.7c.3-0.5 .6-1 1-1.3h-4.2v-1.8h11.8v1.8h-1.3c.4 .3 .8 .7 1 1.2c.3 .6 .4 1.2 .4 1.9c0 .7-0.1 1.4-0.5 2.1c-0.4 .6-1 1.1-1.7 1.5c-0.7 .3-1.5 .5-2.3 .5Zm0-7.2c-0.6 0-1.2 .1-1.6 .4c-0.4 .2-0.8 .6-1 1c-0.3 .4-0.4 .8-0.4 1.3c0 .4 .1 .9 .4 1.3c.2 .4 .5 .7 1 1c.4 .2 .9 .3 1.6 .3c.6 0 1.1-0.1 1.6-0.3c.4-0.3 .8-0.6 1-1c.2-0.4 .4-0.9 .4-1.3c0-0.5-0.2-0.9-0.4-1.3c-0.2-0.4-0.6-0.8-1-1c-0.5-0.3-1-0.4-1.6-0.4Zm2.8-11.8l-7.2-2.5v-1.9l8.8 3.3v2.2l-8.8 3.3v-1.9l7.2-2.5Zm-8.4-6.7c0 .3-0.1 .6-0.3 .8c-0.2 .2-0.5 .3-0.9 .3c-0.3 0-0.6-0.1-0.8-0.3c-0.2-0.2-0.3-0.5-0.3-0.8c0-0.4 .1-0.6 .3-0.9c.2-0.2 .5-0.3 .8-0.3c.4 0 .7 .1 .9 .3c.2 .3 .3 .5 .3 .9Zm1.2-0.9h8.8v1.8h-8.8v-1.8Zm4.2-10.5c.3 0 .6 0 .9 .1v6.7c.7-0.1 1.2-0.3 1.7-0.8c.4-0.5 .6-1 .6-1.7c0-1-0.4-1.7-1.2-2.1v-2c.8 .3 1.5 .8 2 1.5c.5 .7 .7 1.5 .7 2.6c0 .8-0.1 1.6-0.5 2.3c-0.4 .6-0.9 1.1-1.6 1.5c-0.7 .4-1.5 .6-2.4 .6c-0.9 0-1.7-0.2-2.4-0.6c-0.7-0.3-1.2-0.9-1.6-1.5c-0.4-0.7-0.6-1.5-0.6-2.3c0-0.9 .2-1.6 .6-2.2c.3-0.7 .9-1.2 1.5-1.6c.7-0.3 1.4-0.5 2.3-0.5Zm-0.6 1.9c-0.7 0-1.2 .2-1.6 .7c-0.4 .5-0.6 1.1-0.6 1.8c0 .6 .2 1.1 .6 1.6c.4 .4 .9 .7 1.6 .8v-4.9Zm-3.6-15.5l8.8 2.7v1.9l-6.5 1.8l6.5 1.8v1.9l-8.8 2.7v-1.8l7.1-1.9l-7.1-1.8v-1.9l7-1.8l-7-1.9v-1.7Zm8.9-9.4c0 .8-0.1 1.6-0.5 2.3c-0.4 .6-0.9 1.2-1.6 1.6c-0.7 .3-1.5 .5-2.4 .5c-0.9 0-1.7-0.2-2.4-0.6c-0.7-0.4-1.2-0.9-1.6-1.6c-0.4-0.7-0.6-1.4-0.6-2.3c0-0.8 .2-1.6 .6-2.3c.4-0.6 .9-1.2 1.6-1.6c.7-0.4 1.5-0.6 2.4-0.6c.9 0 1.7 .2 2.4 .6c.7 .5 1.2 1 1.6 1.7c.4 .7 .5 1.5 .5 2.3Zm-1.5 0c0-0.5-0.2-0.9-0.4-1.3c-0.2-0.4-0.5-0.8-1-1c-0.4-0.3-1-0.4-1.6-0.4c-0.7 0-1.2 .1-1.6 .4c-0.5 .2-0.8 .5-1 1c-0.3 .4-0.4 .8-0.4 1.3c0 .4 .1 .9 .4 1.3c.2 .4 .5 .7 1 .9c.4 .3 .9 .4 1.6 .4c.9 0 1.7-0.3 2.2-0.7c.5-0.5 .8-1.2 .8-1.9Zm-5.9-10.1v1.7h7.3v1.8h-7.3v1.1l-1.5-0.1v-1h-0.6c-1.1 0-1.8-0.3-2.2-0.8c-0.5-0.5-0.8-1.4-0.8-2.5h1.6c0 .5 .1 .9 .3 1.1c.2 .3 .5 .4 1.1 .4h.6v-1.7h1.5Zm7.4-9.6c0 .9-0.1 1.6-0.5 2.3c-0.4 .7-0.9 1.2-1.6 1.6c-0.7 .4-1.5 .6-2.4 .6c-0.9 0-1.7-0.2-2.4-0.6c-0.7-0.4-1.2-1-1.6-1.7c-0.4-0.6-0.6-1.4-0.6-2.2c0-0.9 .2-1.6 .6-2.3c.4-0.7 .9-1.2 1.6-1.6c.7-0.4 1.5-0.6 2.4-0.6c.9 0 1.7 .2 2.4 .6c.7 .4 1.2 .9 1.6 1.6c.4 .7 .5 1.5 .5 2.3Zm-1.5 0c0-0.4-0.2-0.9-0.4-1.3c-0.2-0.4-0.5-0.7-1-1c-0.4-0.2-1-0.4-1.6-0.4c-0.7 0-1.2 .2-1.6 .4c-0.5 .3-0.8 .6-1 1c-0.3 .4-0.4 .8-0.4 1.3c0 .5 .1 .9 .4 1.3c.2 .4 .5 .7 1 .9c.4 .3 .9 .4 1.6 .4c.9 0 1.7-0.2 2.2-0.7c.5-0.5 .8-1.1 .8-1.9Zm-6.1-8.2c-0.4-0.3-0.8-0.7-1-1.2c-0.3-0.6-0.5-1.2-0.5-1.8c0-0.8 .2-1.5 .6-2.1c.4-0.7 .9-1.2 1.6-1.5c.7-0.4 1.5-0.6 2.4-0.6c.8 0 1.6 .2 2.3 .6c.7 .3 1.3 .8 1.7 1.5c.4 .6 .5 1.3 .5 2.1c0 .6-0.1 1.2-0.4 1.8c-0.2 .5-0.6 .9-1 1.2h5.5v1.9h-13v-1.9h1.3Zm3.1-5.3c-0.7 0-1.2 .1-1.6 .4c-0.5 .2-0.8 .5-1 1c-0.3 .4-0.4 .8-0.4 1.3c0 .4 .1 .9 .4 1.3c.2 .4 .6 .7 1 1c.4 .2 1 .3 1.6 .3c.6 0 1.1-0.1 1.6-0.3c.4-0.3 .8-0.6 1-1c.2-0.4 .4-0.9 .4-1.3c0-0.5-0.2-0.9-0.4-1.3c-0.2-0.5-0.6-0.8-1-1c-0.5-0.3-1-0.4-1.6-0.4Zm-0.2-11.8c.3 0 .6 .1 .9 .1v6.7c.7 0 1.2-0.3 1.7-0.7c.4-0.5 .6-1.1 .6-1.8c0-1-0.4-1.6-1.2-2.1v-1.9c.8 .2 1.5 .7 2 1.4c.5 .7 .7 1.6 .7 2.6c0 .9-0.1 1.6-0.5 2.3c-0.4 .7-0.9 1.2-1.6 1.6c-0.7 .3-1.5 .5-2.4 .5c-0.9 0-1.7-0.2-2.4-0.5c-0.7-0.4-1.2-0.9-1.6-1.6c-0.4-0.6-0.6-1.4-0.6-2.3c0-0.8 .2-1.5 .6-2.2c.3-0.6 .9-1.2 1.5-1.5c.7-0.4 1.4-0.6 2.3-0.6Zm-0.6 1.9c-0.7 .1-1.2 .3-1.6 .8c-0.4 .4-0.6 1-0.6 1.7c0 .6 .2 1.2 .6 1.6c.4 .5 .9 .7 1.6 .8v-4.9Zm-2.3-5.5c-0.5-0.2-0.8-0.6-1.1-1c-0.2-0.5-0.4-1-0.4-1.6h1.9v.4c0 .8 .2 1.3 .6 1.7c.3 .3 1 .5 1.9 .5h4.6v1.8h-8.8v-1.8h1.3Zm3.1-3.7c-0.9 0-1.7-0.2-2.4-0.5c-0.7-0.4-1.2-0.9-1.6-1.5c-0.4-0.7-0.6-1.4-0.6-2.1c0-0.7 .2-1.3 .5-1.9c.2-0.5 .6-0.9 1-1.2h-1.3v-1.8h8.8v1.8h-1.3c.4 .3 .8 .7 1 1.3c.3 .5 .4 1.1 .4 1.8c0 .7-0.1 1.4-0.5 2.1c-0.4 .6-1 1.1-1.7 1.5c-0.7 .3-1.5 .5-2.3 .5Zm0-7.2c-0.6 0-1.2 .1-1.6 .4c-0.4 .2-0.8 .6-1 1c-0.3 .4-0.4 .8-0.4 1.3c0 .4 .1 .9 .4 1.3c.2 .4 .5 .7 1 1c.4 .2 .9 .3 1.6 .3c.6 0 1.1-0.1 1.6-0.3c.4-0.3 .8-0.6 1-1c.2-0.4 .4-0.9 .4-1.3c0-0.5-0.2-0.9-0.4-1.3c-0.2-0.4-0.6-0.8-1-1c-0.5-0.3-1-0.4-1.6-0.4Zm-2.9-6.4h4.9c.3 0 .5 0 .7-0.2c.1-0.2 .2-0.4 .2-0.8v-1.1h1.5v1.4c0 .8-0.2 1.5-0.6 1.9c-0.4 .5-1 .7-1.8 .7h-4.9v1h-1.5v-1h-2.2v-1.9h2.2v-2.1h1.5v2.1Zm-2.7-4.7c0 .3-0.1 .6-0.3 .8c-0.2 .2-0.5 .3-0.9 .3c-0.3 0-0.6-0.1-0.8-0.3c-0.2-0.2-0.3-0.5-0.3-0.8c0-0.3 .1-0.6 .3-0.8c.2-0.3 .5-0.4 .8-0.4c.4 0 .7 .1 .9 .4c.2 .2 .3 .5 .3 .8Zm1.2-0.9h8.8v1.8h-8.8v-1.8Zm8.9-6.2c0 .8-0.1 1.5-0.5 2.2c-0.4 .7-0.9 1.2-1.6 1.6c-0.7 .4-1.5 .6-2.4 .6c-0.9 0-1.7-0.2-2.4-0.6c-0.7-0.4-1.2-0.9-1.6-1.6c-0.4-0.7-0.6-1.5-0.6-2.3c0-0.9 .2-1.6 .6-2.3c.4-0.7 .9-1.2 1.6-1.6c.7-0.4 1.5-0.6 2.4-0.6c.9 0 1.7 .2 2.4 .6c.7 .4 1.2 1 1.6 1.7c.4 .7 .5 1.4 .5 2.3Zm-1.5 0c0-0.5-0.2-0.9-0.4-1.3c-0.2-0.5-0.5-0.8-1-1.1c-0.4-0.2-1-0.3-1.6-0.3c-0.7 0-1.2 .1-1.6 .3c-0.5 .3-0.8 .6-1 1c-0.3 .4-0.4 .8-0.4 1.3c0 .5 .1 .9 .4 1.3c.2 .4 .5 .7 1 1c.4 .2 .9 .3 1.6 .3c.9 0 1.7-0.2 2.2-0.7c.5-0.5 .8-1.1 .8-1.8Zm-7.6-10.9c0-0.7 .2-1.3 .5-1.8c.3-0.6 .7-1 1.3-1.3c.5-0.3 1.2-0.5 2-0.5h5.2v1.8h-4.9c-0.8 0-1.4 .2-1.8 .6c-0.5 .4-0.7 1-0.7 1.6c0 .7 .2 1.3 .7 1.7c.4 .4 1 .6 1.8 .6h4.9v1.8h-8.8v-1.8h1c-0.4-0.3-0.7-0.7-0.9-1.2c-0.2-0.4-0.3-0.9-0.3-1.5Zm9.1-9.1c0 .7-0.1 1.3-0.3 1.9c-0.3 .5-0.6 .9-1 1.3c-0.5 .3-1 .5-1.5 .5v-1.9c.4 0 .7-0.2 .9-0.5c.3-0.4 .4-0.8 .4-1.3c0-0.5-0.1-0.9-0.3-1.2c-0.2-0.2-0.4-0.4-0.7-0.4c-0.4 0-0.6 .2-0.8 .5c-0.1 .3-0.3 .8-0.5 1.5c-0.2 .6-0.4 1.2-0.5 1.6c-0.2 .4-0.5 .8-0.8 1.1c-0.4 .3-0.8 .4-1.4 .4c-0.5 0-0.9-0.1-1.3-0.4c-0.4-0.3-0.7-0.7-0.9-1.2c-0.2-0.5-0.4-1.1-0.4-1.8c0-1 .3-1.8 .8-2.4c.5-0.6 1.2-0.9 2.1-1v1.9c-0.4 0-0.7 .1-1 .4c-0.2 .3-0.3 .7-0.3 1.2c0 .5 .1 .8 .2 1.1c.2 .3 .5 .4 .8 .4c.2 0 .4-0.1 .6-0.3c.1-0.1 .2-0.3 .3-0.6c.1-0.2 .2-0.6 .4-1.1c.2-0.6 .3-1.1 .5-1.5c.2-0.5 .4-0.8 .8-1.1c.3-0.3 .8-0.5 1.3-0.5c.5 0 1 .2 1.4 .4c.4 .3 .7 .7 .9 1.2c.2 .5 .3 1.1 .3 1.8Zm0-13.3c0 .8-0.1 1.6-0.5 2.2c-0.4 .7-0.9 1.2-1.6 1.6c-0.7 .4-1.5 .6-2.4 .6c-0.9 0-1.7-0.2-2.4-0.6c-0.7-0.4-1.2-0.9-1.6-1.6c-0.4-0.7-0.6-1.5-0.6-2.3c0-0.9 .2-1.6 .6-2.3c.4-0.7 .9-1.2 1.6-1.6c.7-0.4 1.5-0.6 2.4-0.6c.9 0 1.7 .2 2.4 .6c.7 .4 1.2 1 1.6 1.7c.4 .7 .5 1.4 .5 2.3Zm-1.5 0c0-0.5-0.2-0.9-0.4-1.3c-0.2-0.5-0.5-0.8-1-1.1c-0.4-0.2-1-0.3-1.6-0.3c-0.7 0-1.2 .1-1.6 .3c-0.5 .3-0.8 .6-1 1c-0.3 .4-0.4 .8-0.4 1.3c0 .5 .1 .9 .4 1.3c.2 .4 .5 .7 1 1c.4 .2 .9 .3 1.6 .3c.9 0 1.7-0.2 2.2-0.7c.5-0.5 .8-1.1 .8-1.8Zm-7.6-10.9c0-0.7 .2-1.3 .5-1.8c.3-0.6 .7-1 1.3-1.3c.5-0.3 1.2-0.5 2-0.5h5.2v1.8h-4.9c-0.8 0-1.4 .2-1.8 .6c-0.5 .4-0.7 1-0.7 1.6c0 .7 .2 1.3 .7 1.7c.4 .4 1 .6 1.8 .6h4.9v1.8h-8.8v-1.8h1c-0.4-0.3-0.7-0.7-0.9-1.2c-0.2-0.4-0.3-0.9-0.3-1.5Zm4.6-9.5c-0.9 0-1.7-0.1-2.4-0.5c-0.7-0.4-1.2-0.9-1.6-1.5c-0.4-0.6-0.6-1.3-0.6-2.1c0-0.7 .2-1.3 .5-1.8c.2-0.5 .6-1 1-1.3h-1.3v-1.8h8.8v1.8h-1.3c.4 .3 .8 .8 1 1.3c.3 .5 .4 1.1 .4 1.8c0 .8-0.1 1.5-0.5 2.1c-0.4 .6-1 1.1-1.7 1.5c-0.7 .4-1.5 .5-2.3 .5Zm0-7.2c-0.6 0-1.2 .2-1.6 .4c-0.4 .3-0.8 .6-1 1c-0.3 .4-0.4 .8-0.4 1.3c0 .5 .1 .9 .4 1.3c.2 .4 .5 .8 1 1c.4 .3 .9 .4 1.6 .4c.6 0 1.1-0.1 1.6-0.4c.4-0.2 .8-0.6 1-1c.2-0.4 .4-0.8 .4-1.3c0-0.5-0.2-0.9-0.4-1.3c-0.2-0.4-0.6-0.7-1-1c-0.5-0.2-1-0.4-1.6-0.4Zm-3.5-16.4c-0.6 .3-1 .7-1.3 1.2c-0.3 .5-0.4 1.1-0.4 1.8c0 .7 .2 1.4 .5 1.9c.3 .6 .8 1.1 1.4 1.4c.6 .3 1.3 .5 2.1 .5c.8 0 1.5-0.2 2.1-0.5c.7-0.3 1.1-0.8 1.5-1.4c.3-0.5 .4-1.2 .4-1.9c0-1-0.2-1.8-0.8-2.4c-0.5-0.7-1.3-1-2.2-1.2v4.2h-1.5v-6.1h1.4c.9 .1 1.7 .4 2.4 .9c.7 .5 1.3 1.1 1.8 1.9c.4 .8 .6 1.7 .6 2.7c0 1-0.2 2-0.7 2.8c-0.5 .9-1.2 1.6-2.1 2.1c-0.8 .5-1.8 .7-2.9 .7c-1.1 0-2-0.2-2.9-0.7c-0.9-0.5-1.5-1.2-2-2.1c-0.5-0.8-0.8-1.8-0.8-2.8c0-1.2 .3-2.3 .9-3.2c.6-0.9 1.4-1.6 2.5-2v2.2Zm.1-12.1c.6 0 1.1 .1 1.6 .4c.5 .3 .9 .7 1.2 1.3c.3 .6 .5 1.3 .5 2.2v2h4.5v1.9h-11.1v-3.9c0-0.8 .1-1.5 .4-2.1c.3-0.6 .7-1.1 1.2-1.4c.5-0.3 1.1-0.4 1.7-0.4Zm1.8 3.9c0-0.7-0.2-1.2-0.5-1.5c-0.3-0.4-0.7-0.5-1.3-0.5c-1.2 0-1.8 .6-1.8 2v2h3.6v-2Zm-5.1-7.5h7.1c.8 0 1.4-0.2 1.9-0.6c.4-0.5 .6-1.1 .6-1.9c0-0.8-0.2-1.4-0.6-1.8c-0.5-0.5-1.1-0.7-1.9-0.7h-7.1v-1.8h7c.9 0 1.7 .2 2.3 .6c.7 .4 1.1 .9 1.4 1.6c.4 .6 .5 1.3 .5 2.1c0 .8-0.1 1.6-0.5 2.2c-0.3 .7-0.7 1.2-1.4 1.6c-0.6 .4-1.4 .6-2.3 .6h-7v-1.9Z" fill="#4d4d4d"/><g opacity="0" transform="translate(299,211)" style="animation: 15.5s linear infinite both a1_o;"><path d="M0 318v-123" stroke="#b6bcf6" stroke-width="2" stroke-dasharray="4 4"/><path d="M0 123v-123" stroke="#b6bcf6" stroke-width="2" stroke-dasharray="4 4"/></g><path d="M297.9 613.1c.6 .5 1.6 .5 2.2 0l9.5-9.6c.6-0.6 .6-1.5 0-2.1c-0.6-0.6-1.5-0.6-2.1 0l-8.5 8.5l-8.5-8.5c-0.6-0.6-1.5-0.6-2.1 0c-0.6 .6-0.6 1.5 0 2.1l9.5 9.6Zm-0.4-65.1v64h3v-64h-3Z" fill="#b6bcf6"/><path d="M297.9 193.1c.6 .5 1.6 .5 2.2 0l9.5-9.6c.6-0.6 .6-1.5 0-2.1c-0.6-0.6-1.5-0.6-2.1 0l-8.5 8.5l-8.5-8.5c-0.6-0.6-1.5-0.6-2.1 0c-0.6 .6-0.6 1.5 0 2.1l9.5 9.6Zm-0.4-65.1v64h3v-64h-3Z" fill="#b6bcf6"/><g transform="translate(288,128)" style="animation: 15.5s linear infinite both a2_o;"><path d="M9.9 343.1c.6 .5 1.6 .5 2.2 0l9.5-9.6c.6-0.6 .6-1.5 0-2.1c-0.6-0.6-1.5-0.6-2.1 0l-8.5 8.5l-8.5-8.5c-0.6-0.6-1.5-0.6-2.1 0c-0.6 .6-0.6 1.5 0 2.1l9.5 9.6Zm-0.4-65.1v64h3v-64h-3Z" fill="#b6bcf6"/><path d="M9.9 207.1c.6 .5 1.6 .5 2.2 0l9.5-9.6c.6-0.6 .6-1.5 0-2.1c-0.6-0.6-1.5-0.6-2.1 0l-8.5 8.5l-8.5-8.5c-0.6-0.6-1.5-0.6-2.1 0c-0.6 .6-0.6 1.5 0 2.1l9.5 9.6Zm-0.4-65.1v64h3v-64h-3Z" fill="#b6bcf6"/></g><g style="animation: 15.5s linear infinite both a4_t;"><g transform="translate(458.5,92) translate(-12,-12)" style="animation: 15.5s linear infinite both a3_t;"><rect x="4" width="20" height="20" fill="#fc88b2"/><rect y="4" width="20" height="20" fill="#f92672"/></g></g><g transform="translate(244.5,621.5)"><rect width="109" height="53" rx="6.5" stroke="#4351e8" stroke-width="3" fill="#fff"/><path d="M32.2 24.9v5.2c0 .4 .1 .7 .3 .9c.2 .2 .5 .3 1 .3h1v1.2h-1.3c-0.8 0-1.4-0.2-1.8-0.6c-0.4-0.3-0.6-0.9-0.6-1.8v-5.2h-1.2v-1.2h1.2v-2.2h1.4v2.2h2.3v1.2h-2.3Zm12.1 2.9c0 .3 0 .6-0.1 .9h-7c.1 .8 .4 1.5 .9 2c.6 .5 1.2 .7 2 .7c.6 0 1.1-0.1 1.5-0.4c.5-0.3 .8-0.7 .9-1.2h1.6c-0.2 .8-0.7 1.5-1.4 2.1c-0.7 .5-1.6 .7-2.6 .7c-0.9 0-1.6-0.1-2.3-0.5c-0.6-0.4-1.1-0.9-1.5-1.6c-0.4-0.7-0.6-1.5-0.6-2.4c0-0.9 .2-1.7 .6-2.4c.3-0.7 .9-1.2 1.5-1.6c.7-0.3 1.4-0.5 2.3-0.5c.8 0 1.5 .2 2.2 .5c.6 .4 1.1 .9 1.5 1.5c.3 .7 .5 1.4 .5 2.2Zm-1.5-0.3c0-0.6-0.1-1.1-0.4-1.4c-0.2-0.5-0.6-0.8-1-1c-0.4-0.2-0.9-0.3-1.4-0.3c-0.7 0-1.4 .3-1.9 .7c-0.5 .5-0.8 1.1-0.9 2h5.6Zm7.7-3.9c1 0 1.9 .3 2.6 .9c.6 .7 1 1.6 1 2.8v5.2h-1.5v-5c0-0.8-0.2-1.5-0.6-2c-0.5-0.4-1.1-0.7-1.8-0.7c-0.8 0-1.4 .3-1.9 .8c-0.4 .4-0.6 1.1-0.6 2.1v4.8h-1.5v-8.8h1.5v1.3c.3-0.5 .6-0.8 1.1-1.1c.5-0.2 1.1-0.3 1.7-0.3Zm9 9c-0.6 0-1.2-0.1-1.8-0.3c-0.5-0.2-0.9-0.5-1.2-1c-0.3-0.4-0.5-0.8-0.5-1.4h1.5c0 .5 .2 .8 .6 1.1c.3 .3 .8 .4 1.4 .4c.6 0 1-0.1 1.3-0.4c.4-0.2 .5-0.5 .5-0.9c0-0.4-0.1-0.7-0.5-0.8c-0.3-0.2-0.9-0.4-1.6-0.6c-0.6-0.2-1.2-0.3-1.6-0.5c-0.4-0.2-0.7-0.4-1-0.8c-0.3-0.3-0.5-0.8-0.5-1.4c0-0.4 .2-0.8 .4-1.2c.3-0.4 .7-0.7 1.2-0.9c.5-0.2 1-0.3 1.7-0.3c.9 0 1.7 .2 2.3 .7c.6 .5 .9 1.2 1 2h-1.5c0-0.4-0.2-0.8-0.5-1.1c-0.4-0.2-0.8-0.4-1.4-0.4c-0.5 0-0.9 .1-1.2 .4c-0.4 .2-0.5 .5-0.5 .8c0 .3 .1 .6 .3 .8c.2 .1 .4 .3 .7 .4c.3 .1 .7 .2 1.2 .4c.6 .1 1.1 .3 1.5 .5c.4 .1 .7 .4 1 .7c.3 .4 .4 .8 .4 1.3c0 .5-0.1 .9-0.4 1.3c-0.2 .4-0.6 .7-1.1 .9c-0.5 .2-1 .3-1.7 .3Zm9.1 0c-0.8 0-1.5-0.1-2.2-0.5c-0.7-0.4-1.2-0.9-1.6-1.6c-0.4-0.7-0.5-1.5-0.5-2.4c0-0.9 .1-1.7 .5-2.4c.4-0.7 1-1.2 1.6-1.6c.7-0.3 1.5-0.5 2.3-0.5c.8 0 1.6 .2 2.2 .5c.7 .4 1.2 .9 1.6 1.6c.4 .7 .6 1.5 .6 2.4c0 .9-0.2 1.7-0.6 2.4c-0.4 .7-0.9 1.2-1.6 1.6c-0.7 .4-1.4 .5-2.3 .5Zm0-1.2c.5 0 1-0.2 1.5-0.4c.5-0.2 .8-0.6 1.1-1.1c.3-0.5 .4-1.1 .4-1.8c0-0.7-0.1-1.3-0.4-1.8c-0.3-0.5-0.6-0.8-1.1-1.1c-0.4-0.2-0.9-0.3-1.4-0.3c-0.6 0-1.1 .1-1.5 .3c-0.4 .3-0.8 .6-1.1 1.1c-0.2 .5-0.4 1.1-0.4 1.8c0 .7 .2 1.3 .4 1.8c.3 .5 .6 .9 1.1 1.1c.4 .2 .9 .4 1.4 .4Zm7.9-6.2c.2-0.5 .6-0.9 1.1-1.2c.5-0.3 1-0.4 1.7-0.4v1.5h-0.4c-1.6 0-2.4 .9-2.4 2.6v4.8h-1.5v-8.8h1.5v1.5Z" fill="#4351e8"/></g><g transform="translate(299,506) translate(-54.5,-26.5)" style="animation: 15.5s linear infinite both a5_t, 15.5s linear infinite both a5_o;"><rect width="109" height="53" rx="6.5" stroke="#4351e8" stroke-width="3" fill="#fff"/><path d="M34.4 23.6c.7 0 1.3 .1 1.8 .4c.5 .3 1 .7 1.3 1.3c.3 .5 .4 1.2 .4 2v5.2h-1.4v-5c0-0.8-0.2-1.5-0.7-2c-0.4-0.4-1-0.7-1.7-0.7c-0.8 0-1.4 .3-1.8 .8c-0.5 .5-0.7 1.2-0.7 2.1v4.8h-1.4v-5c0-0.8-0.2-1.5-0.7-2c-0.4-0.4-1-0.7-1.7-0.7c-0.8 0-1.4 .3-1.8 .8c-0.5 .5-0.7 1.2-0.7 2.1v4.8h-1.5v-8.8h1.5v1.3c.3-0.5 .7-0.8 1.1-1.1c.5-0.2 1.1-0.3 1.7-0.3c.7 0 1.4 .1 1.9 .5c.6 .3 1 .8 1.3 1.4c.2-0.6 .6-1.1 1.2-1.4c.6-0.4 1.2-0.5 1.9-0.5Zm5.4 4.5c0-0.9 .2-1.7 .5-2.4c.4-0.7 .9-1.2 1.5-1.6c.7-0.3 1.4-0.5 2.1-0.5c.8 0 1.5 .2 2 .5c.6 .3 1 .7 1.3 1.2v-1.6h1.5v8.8h-1.5v-1.6c-0.3 .5-0.7 .9-1.3 1.2c-0.6 .4-1.2 .5-2 .5c-0.8 0-1.5-0.1-2.1-0.5c-0.6-0.4-1.1-1-1.5-1.6c-0.3-0.7-0.5-1.5-0.5-2.4Zm7.4 0c0-0.7-0.1-1.2-0.4-1.7c-0.3-0.5-0.6-0.9-1.1-1.1c-0.4-0.3-0.9-0.4-1.5-0.4c-0.5 0-1 .1-1.5 .3c-0.4 .3-0.8 .7-1 1.2c-0.3 .4-0.4 1-0.4 1.7c0 .7 .1 1.2 .4 1.7c.2 .5 .6 .9 1 1.2c.5 .2 1 .4 1.5 .4c.6 0 1.1-0.2 1.5-0.4c.5-0.3 .8-0.7 1.1-1.2c.3-0.5 .4-1 .4-1.7Zm5.7-3.2v5.2c0 .4 .1 .7 .3 .9c.2 .2 .5 .3 .9 .3h1.1v1.2h-1.3c-0.8 0-1.4-0.2-1.8-0.6c-0.4-0.3-0.6-0.9-0.6-1.8v-5.2h-1.2v-1.2h1.2v-2.2h1.4v2.2h2.3v1.2h-2.3Zm14.6-1.3c.7 0 1.3 .1 1.8 .4c.6 .3 1 .7 1.3 1.3c.3 .5 .5 1.2 .5 2v5.2h-1.5v-5c0-0.8-0.2-1.5-0.6-2c-0.5-0.4-1-0.7-1.8-0.7c-0.7 0-1.3 .3-1.8 .8c-0.4 .5-0.7 1.2-0.7 2.1v4.8h-1.4v-5c0-0.8-0.2-1.5-0.7-2c-0.4-0.4-1-0.7-1.7-0.7c-0.8 0-1.4 .3-1.8 .8c-0.5 .5-0.7 1.2-0.7 2.1v4.8h-1.4v-8.8h1.4v1.3c.3-0.5 .7-0.8 1.2-1.1c.5-0.2 1-0.3 1.6-0.3c.7 0 1.4 .1 1.9 .5c.6 .3 1 .8 1.3 1.4c.3-0.6 .7-1.1 1.2-1.4c.6-0.4 1.2-0.5 1.9-0.5Zm13.7 .1v8.8h-1.4v-1.3c-0.3 .5-0.7 .8-1.2 1.1c-0.5 .2-1 .3-1.6 .3c-0.7 0-1.3-0.1-1.9-0.4c-0.5-0.3-0.9-0.7-1.3-1.3c-0.3-0.5-0.4-1.2-0.4-2v-5.2h1.4v5c0 .8 .2 1.5 .7 2c.4 .4 1 .7 1.8 .7c.7 0 1.4-0.3 1.8-0.8c.4-0.4 .7-1.1 .7-2.1v-4.8h1.4Zm3.9-3v11.8h-1.4v-11.8h1.4Z" fill="#4351e8"/></g><g visibility="hidden" transform="translate(299,506) translate(-54.5,-26.5)" style="animation: 15.5s linear infinite both a6_t, 15.5s linear infinite forwards a6_v;"><rect width="109" height="53" rx="6.5" stroke="#f92672" stroke-width="3" fill="#f92672"/><path d="M34.4 23.6c.7 0 1.3 .1 1.8 .4c.5 .3 1 .7 1.3 1.3c.3 .5 .4 1.2 .4 2v5.2h-1.4v-5c0-0.8-0.2-1.5-0.7-2c-0.4-0.4-1-0.7-1.7-0.7c-0.8 0-1.4 .3-1.8 .8c-0.5 .5-0.7 1.2-0.7 2.1v4.8h-1.4v-5c0-0.8-0.2-1.5-0.7-2c-0.4-0.4-1-0.7-1.7-0.7c-0.8 0-1.4 .3-1.8 .8c-0.5 .5-0.7 1.2-0.7 2.1v4.8h-1.5v-8.8h1.5v1.3c.3-0.5 .7-0.8 1.1-1.1c.5-0.2 1.1-0.3 1.7-0.3c.7 0 1.4 .1 1.9 .5c.6 .3 1 .8 1.3 1.4c.2-0.6 .6-1.1 1.2-1.4c.6-0.4 1.2-0.5 1.9-0.5Zm5.4 4.5c0-0.9 .2-1.7 .5-2.4c.4-0.7 .9-1.2 1.5-1.6c.7-0.3 1.4-0.5 2.1-0.5c.8 0 1.5 .2 2 .5c.6 .3 1 .7 1.3 1.2v-1.6h1.5v8.8h-1.5v-1.6c-0.3 .5-0.7 .9-1.3 1.2c-0.6 .4-1.2 .5-2 .5c-0.8 0-1.5-0.1-2.1-0.5c-0.6-0.4-1.1-1-1.5-1.6c-0.3-0.7-0.5-1.5-0.5-2.4Zm7.4 0c0-0.7-0.1-1.2-0.4-1.7c-0.3-0.5-0.6-0.9-1.1-1.1c-0.4-0.3-0.9-0.4-1.5-0.4c-0.5 0-1 .1-1.5 .3c-0.4 .3-0.8 .7-1 1.2c-0.3 .4-0.4 1-0.4 1.7c0 .7 .1 1.2 .4 1.7c.2 .5 .6 .9 1 1.2c.5 .2 1 .4 1.5 .4c.6 0 1.1-0.2 1.5-0.4c.5-0.3 .8-0.7 1.1-1.2c.3-0.5 .4-1 .4-1.7Zm5.7-3.2v5.2c0 .4 .1 .7 .3 .9c.2 .2 .5 .3 .9 .3h1.1v1.2h-1.3c-0.8 0-1.4-0.2-1.8-0.6c-0.4-0.3-0.6-0.9-0.6-1.8v-5.2h-1.2v-1.2h1.2v-2.2h1.4v2.2h2.3v1.2h-2.3Zm14.6-1.3c.7 0 1.3 .1 1.8 .4c.6 .3 1 .7 1.3 1.3c.3 .5 .5 1.2 .5 2v5.2h-1.5v-5c0-0.8-0.2-1.5-0.6-2c-0.5-0.4-1-0.7-1.8-0.7c-0.7 0-1.3 .3-1.8 .8c-0.4 .5-0.7 1.2-0.7 2.1v4.8h-1.4v-5c0-0.8-0.2-1.5-0.7-2c-0.4-0.4-1-0.7-1.7-0.7c-0.8 0-1.4 .3-1.8 .8c-0.5 .5-0.7 1.2-0.7 2.1v4.8h-1.4v-8.8h1.4v1.3c.3-0.5 .7-0.8 1.2-1.1c.5-0.2 1-0.3 1.6-0.3c.7 0 1.4 .1 1.9 .5c.6 .3 1 .8 1.3 1.4c.3-0.6 .7-1.1 1.2-1.4c.6-0.4 1.2-0.5 1.9-0.5Zm13.7 .1v8.8h-1.4v-1.3c-0.3 .5-0.7 .8-1.2 1.1c-0.5 .2-1 .3-1.6 .3c-0.7 0-1.3-0.1-1.9-0.4c-0.5-0.3-0.9-0.7-1.3-1.3c-0.3-0.5-0.4-1.2-0.4-2v-5.2h1.4v5c0 .8 .2 1.5 .7 2c.4 .4 1 .7 1.8 .7c.7 0 1.4-0.3 1.8-0.8c.4-0.4 .7-1.1 .7-2.1v-4.8h1.4Zm3.9-3v11.8h-1.4v-11.8h1.4Z" fill="#fff"/></g><g transform="translate(244.5,343.5)" style="animation: 15.5s linear infinite both a7_o;"><rect width="109" height="53" rx="6.5" fill="#fff" stroke-width="3" stroke="#4351e8"/><path d="M26.5 32.6c-0.7 0-1.3-0.1-1.8-0.3c-0.5-0.2-0.9-0.5-1.3-1c-0.3-0.4-0.4-0.8-0.5-1.4h1.5c.1 .5 .3 .8 .6 1.1c.4 .3 .9 .4 1.5 .4c.6 0 1-0.1 1.3-0.4c.3-0.2 .5-0.5 .5-0.9c0-0.4-0.2-0.7-0.5-0.8c-0.4-0.2-0.9-0.4-1.6-0.6c-0.7-0.2-1.2-0.3-1.6-0.5c-0.4-0.2-0.8-0.4-1.1-0.8c-0.2-0.3-0.4-0.8-0.4-1.4c0-0.4 .1-0.8 .4-1.2c.3-0.4 .7-0.7 1.1-0.9c.5-0.2 1.1-0.3 1.7-0.3c1 0 1.8 .2 2.4 .7c.6 .5 .9 1.2 .9 2h-1.4c-0.1-0.4-0.2-0.8-0.6-1.1c-0.3-0.2-0.8-0.4-1.3-0.4c-0.5 0-1 .1-1.3 .4c-0.3 .2-0.4 .5-0.4 .8c0 .3 .1 .6 .2 .8c.2 .1 .5 .3 .7 .4c.3 .1 .7 .2 1.2 .4c.7 .1 1.2 .3 1.6 .5c.4 .1 .7 .4 1 .7c.3 .4 .4 .8 .4 1.3c0 .5-0.1 .9-0.4 1.3c-0.3 .4-0.6 .7-1.1 .9c-0.5 .2-1.1 .3-1.7 .3Zm9.1 0c-0.8 0-1.6-0.1-2.2-0.5c-0.7-0.4-1.2-0.9-1.6-1.6c-0.4-0.7-0.6-1.5-0.6-2.4c0-0.9 .2-1.7 .6-2.4c.4-0.7 .9-1.2 1.6-1.6c.7-0.3 1.4-0.5 2.3-0.5c.8 0 1.5 .2 2.2 .5c.7 .4 1.2 .9 1.6 1.6c.4 .7 .6 1.5 .6 2.4c0 .9-0.2 1.7-0.6 2.4c-0.4 .7-1 1.2-1.6 1.6c-0.7 .4-1.5 .5-2.3 .5Zm0-1.2c.5 0 1-0.2 1.5-0.4c.4-0.2 .8-0.6 1.1-1.1c.3-0.5 .4-1.1 .4-1.8c0-0.7-0.1-1.3-0.4-1.8c-0.3-0.5-0.7-0.8-1.1-1.1c-0.4-0.2-0.9-0.3-1.5-0.3c-0.5 0-1 .1-1.4 .3c-0.5 .3-0.8 .6-1.1 1.1c-0.3 .5-0.4 1.1-0.4 1.8c0 .7 .1 1.3 .4 1.8c.3 .5 .6 .9 1.1 1.1c.4 .2 .9 .4 1.4 .4Zm10-6.5h-1.9v7.6h-1.4v-7.6h-1.2v-1.2h1.2v-0.6c0-1 .2-1.7 .7-2.1c.5-0.5 1.4-0.7 2.5-0.7v1.2c-0.7 0-1.1 .1-1.4 .4c-0.2 .2-0.4 .6-0.4 1.2v.6h1.9v1.2Zm3.4 0v5.2c0 .4 .1 .7 .3 .9c.2 .2 .5 .3 1 .3h1v1.2h-1.3c-0.8 0-1.4-0.2-1.8-0.6c-0.4-0.3-0.6-0.9-0.6-1.8v-5.2h-1.1v-1.2h1.1v-2.2h1.4v2.2h2.3v1.2h-2.3Zm14.6-1.3c.7 0 1.3 .1 1.9 .4c.5 .3 .9 .7 1.2 1.3c.3 .5 .5 1.2 .5 2v5.2h-1.4v-5c0-0.8-0.3-1.5-0.7-2c-0.4-0.4-1-0.7-1.7-0.7c-0.8 0-1.4 .3-1.9 .8c-0.4 .5-0.6 1.2-0.6 2.1v4.8h-1.5v-5c0-0.8-0.2-1.5-0.6-2c-0.4-0.4-1-0.7-1.8-0.7c-0.7 0-1.3 .3-1.8 .8c-0.4 .5-0.6 1.2-0.6 2.1v4.8h-1.5v-8.8h1.5v1.3c.2-0.5 .6-0.8 1.1-1.1c.5-0.2 1-0.3 1.6-0.3c.8 0 1.4 .1 2 .5c.5 .3 1 .8 1.2 1.4c.3-0.6 .7-1.1 1.3-1.4c.5-0.4 1.1-0.5 1.8-0.5Zm5.4 4.5c0-0.9 .2-1.7 .6-2.4c.3-0.7 .8-1.2 1.5-1.6c.6-0.3 1.3-0.5 2.1-0.5c.8 0 1.4 .2 2 .5c.6 .3 1 .7 1.3 1.2v-1.6h1.4v8.8h-1.4v-1.6c-0.3 .5-0.8 .9-1.3 1.2c-0.6 .4-1.3 .5-2 .5c-0.8 0-1.5-0.1-2.1-0.5c-0.7-0.4-1.2-1-1.5-1.6c-0.4-0.7-0.6-1.5-0.6-2.4Zm7.5 0c0-0.7-0.2-1.2-0.4-1.7c-0.3-0.5-0.7-0.9-1.1-1.1c-0.5-0.3-1-0.4-1.5-0.4c-0.6 0-1.1 .1-1.5 .3c-0.4 .3-0.8 .7-1.1 1.2c-0.2 .4-0.4 1-0.4 1.7c0 .7 .2 1.2 .4 1.7c.3 .5 .7 .9 1.1 1.2c.4 .2 .9 .4 1.5 .4c.5 0 1-0.2 1.5-0.4c.4-0.3 .8-0.7 1.1-1.2c.2-0.5 .4-1 .4-1.7Zm8.5 4.4l-2.1-3.3l-2 3.3h-1.5l2.8-4.4l-2.8-4.4h1.6l2.1 3.3l2-3.3h1.5l-2.8 4.4l2.8 4.4h-1.6Z" fill="#4351e8"/></g><g visibility="hidden" transform="translate(299,370) translate(-54.5,-26.5)" style="animation: 15.5s linear infinite both a8_t, 15.5s linear infinite forwards a8_v;"><rect width="109" height="53" rx="6.5" fill="#f92672" stroke-width="3" stroke="#f92672"/><path d="M26.5 32.6c-0.7 0-1.3-0.1-1.8-0.3c-0.5-0.2-0.9-0.5-1.3-1c-0.3-0.4-0.4-0.8-0.5-1.4h1.5c.1 .5 .3 .8 .6 1.1c.4 .3 .9 .4 1.5 .4c.6 0 1-0.1 1.3-0.4c.3-0.2 .5-0.5 .5-0.9c0-0.4-0.2-0.7-0.5-0.8c-0.4-0.2-0.9-0.4-1.6-0.6c-0.7-0.2-1.2-0.3-1.6-0.5c-0.4-0.2-0.8-0.4-1.1-0.8c-0.2-0.3-0.4-0.8-0.4-1.4c0-0.4 .1-0.8 .4-1.2c.3-0.4 .7-0.7 1.1-0.9c.5-0.2 1.1-0.3 1.7-0.3c1 0 1.8 .2 2.4 .7c.6 .5 .9 1.2 .9 2h-1.4c-0.1-0.4-0.2-0.8-0.6-1.1c-0.3-0.2-0.8-0.4-1.3-0.4c-0.5 0-1 .1-1.3 .4c-0.3 .2-0.4 .5-0.4 .8c0 .3 .1 .6 .2 .8c.2 .1 .5 .3 .7 .4c.3 .1 .7 .2 1.2 .4c.7 .1 1.2 .3 1.6 .5c.4 .1 .7 .4 1 .7c.3 .4 .4 .8 .4 1.3c0 .5-0.1 .9-0.4 1.3c-0.3 .4-0.6 .7-1.1 .9c-0.5 .2-1.1 .3-1.7 .3Zm9.1 0c-0.8 0-1.6-0.1-2.2-0.5c-0.7-0.4-1.2-0.9-1.6-1.6c-0.4-0.7-0.6-1.5-0.6-2.4c0-0.9 .2-1.7 .6-2.4c.4-0.7 .9-1.2 1.6-1.6c.7-0.3 1.4-0.5 2.3-0.5c.8 0 1.5 .2 2.2 .5c.7 .4 1.2 .9 1.6 1.6c.4 .7 .6 1.5 .6 2.4c0 .9-0.2 1.7-0.6 2.4c-0.4 .7-1 1.2-1.6 1.6c-0.7 .4-1.5 .5-2.3 .5Zm0-1.2c.5 0 1-0.2 1.5-0.4c.4-0.2 .8-0.6 1.1-1.1c.3-0.5 .4-1.1 .4-1.8c0-0.7-0.1-1.3-0.4-1.8c-0.3-0.5-0.7-0.8-1.1-1.1c-0.4-0.2-0.9-0.3-1.5-0.3c-0.5 0-1 .1-1.4 .3c-0.5 .3-0.8 .6-1.1 1.1c-0.3 .5-0.4 1.1-0.4 1.8c0 .7 .1 1.3 .4 1.8c.3 .5 .6 .9 1.1 1.1c.4 .2 .9 .4 1.4 .4Zm10-6.5h-1.9v7.6h-1.4v-7.6h-1.2v-1.2h1.2v-0.6c0-1 .2-1.7 .7-2.1c.5-0.5 1.4-0.7 2.5-0.7v1.2c-0.7 0-1.1 .1-1.4 .4c-0.2 .2-0.4 .6-0.4 1.2v.6h1.9v1.2Zm3.4 0v5.2c0 .4 .1 .7 .3 .9c.2 .2 .5 .3 1 .3h1v1.2h-1.3c-0.8 0-1.4-0.2-1.8-0.6c-0.4-0.3-0.6-0.9-0.6-1.8v-5.2h-1.1v-1.2h1.1v-2.2h1.4v2.2h2.3v1.2h-2.3Zm14.6-1.3c.7 0 1.3 .1 1.9 .4c.5 .3 .9 .7 1.2 1.3c.3 .5 .5 1.2 .5 2v5.2h-1.4v-5c0-0.8-0.3-1.5-0.7-2c-0.4-0.4-1-0.7-1.7-0.7c-0.8 0-1.4 .3-1.9 .8c-0.4 .5-0.6 1.2-0.6 2.1v4.8h-1.5v-5c0-0.8-0.2-1.5-0.6-2c-0.4-0.4-1-0.7-1.8-0.7c-0.7 0-1.3 .3-1.8 .8c-0.4 .5-0.6 1.2-0.6 2.1v4.8h-1.5v-8.8h1.5v1.3c.2-0.5 .6-0.8 1.1-1.1c.5-0.2 1-0.3 1.6-0.3c.8 0 1.4 .1 2 .5c.5 .3 1 .8 1.2 1.4c.3-0.6 .7-1.1 1.3-1.4c.5-0.4 1.1-0.5 1.8-0.5Zm5.4 4.5c0-0.9 .2-1.7 .6-2.4c.3-0.7 .8-1.2 1.5-1.6c.6-0.3 1.3-0.5 2.1-0.5c.8 0 1.4 .2 2 .5c.6 .3 1 .7 1.3 1.2v-1.6h1.4v8.8h-1.4v-1.6c-0.3 .5-0.8 .9-1.3 1.2c-0.6 .4-1.3 .5-2 .5c-0.8 0-1.5-0.1-2.1-0.5c-0.7-0.4-1.2-1-1.5-1.6c-0.4-0.7-0.6-1.5-0.6-2.4Zm7.5 0c0-0.7-0.2-1.2-0.4-1.7c-0.3-0.5-0.7-0.9-1.1-1.1c-0.5-0.3-1-0.4-1.5-0.4c-0.6 0-1.1 .1-1.5 .3c-0.4 .3-0.8 .7-1.1 1.2c-0.2 .4-0.4 1-0.4 1.7c0 .7 .2 1.2 .4 1.7c.3 .5 .7 .9 1.1 1.2c.4 .2 .9 .4 1.5 .4c.5 0 1-0.2 1.5-0.4c.4-0.3 .8-0.7 1.1-1.2c.2-0.5 .4-1 .4-1.7Zm8.5 4.4l-2.1-3.3l-2 3.3h-1.5l2.8-4.4l-2.8-4.4h1.6l2.1 3.3l2-3.3h1.5l-2.8 4.4l2.8 4.4h-1.6Z" fill="#fff"/></g><g transform="translate(299,234) translate(-54.5,-26.5)" style="animation: 15.5s linear infinite both a9_t, 15.5s linear infinite both a9_o;"><rect width="109" height="53" rx="6.5" stroke="#4351e8" stroke-width="3" fill="#fff"/><path d="M34.4 23.6c.7 0 1.3 .1 1.8 .4c.5 .3 1 .7 1.3 1.3c.3 .5 .4 1.2 .4 2v5.2h-1.4v-5c0-0.8-0.2-1.5-0.7-2c-0.4-0.4-1-0.7-1.7-0.7c-0.8 0-1.4 .3-1.8 .8c-0.5 .5-0.7 1.2-0.7 2.1v4.8h-1.4v-5c0-0.8-0.2-1.5-0.7-2c-0.4-0.4-1-0.7-1.7-0.7c-0.8 0-1.4 .3-1.8 .8c-0.5 .5-0.7 1.2-0.7 2.1v4.8h-1.5v-8.8h1.5v1.3c.3-0.5 .7-0.8 1.1-1.1c.5-0.2 1.1-0.3 1.7-0.3c.7 0 1.4 .1 1.9 .5c.6 .3 1 .8 1.3 1.4c.2-0.6 .6-1.1 1.2-1.4c.6-0.4 1.2-0.5 1.9-0.5Zm5.4 4.5c0-0.9 .2-1.7 .5-2.4c.4-0.7 .9-1.2 1.5-1.6c.7-0.3 1.4-0.5 2.1-0.5c.8 0 1.5 .2 2 .5c.6 .3 1 .7 1.3 1.2v-1.6h1.5v8.8h-1.5v-1.6c-0.3 .5-0.7 .9-1.3 1.2c-0.6 .4-1.2 .5-2 .5c-0.8 0-1.5-0.1-2.1-0.5c-0.6-0.4-1.1-1-1.5-1.6c-0.3-0.7-0.5-1.5-0.5-2.4Zm7.4 0c0-0.7-0.1-1.2-0.4-1.7c-0.3-0.5-0.6-0.9-1.1-1.1c-0.4-0.3-0.9-0.4-1.5-0.4c-0.5 0-1 .1-1.5 .3c-0.4 .3-0.8 .7-1 1.2c-0.3 .4-0.4 1-0.4 1.7c0 .7 .1 1.2 .4 1.7c.2 .5 .6 .9 1 1.2c.5 .2 1 .4 1.5 .4c.6 0 1.1-0.2 1.5-0.4c.5-0.3 .8-0.7 1.1-1.2c.3-0.5 .4-1 .4-1.7Zm5.7-3.2v5.2c0 .4 .1 .7 .3 .9c.2 .2 .5 .3 .9 .3h1.1v1.2h-1.3c-0.8 0-1.4-0.2-1.8-0.6c-0.4-0.3-0.6-0.9-0.6-1.8v-5.2h-1.2v-1.2h1.2v-2.2h1.4v2.2h2.3v1.2h-2.3Zm14.6-1.3c.7 0 1.3 .1 1.8 .4c.6 .3 1 .7 1.3 1.3c.3 .5 .5 1.2 .5 2v5.2h-1.5v-5c0-0.8-0.2-1.5-0.6-2c-0.5-0.4-1-0.7-1.8-0.7c-0.7 0-1.3 .3-1.8 .8c-0.4 .5-0.7 1.2-0.7 2.1v4.8h-1.4v-5c0-0.8-0.2-1.5-0.7-2c-0.4-0.4-1-0.7-1.7-0.7c-0.8 0-1.4 .3-1.8 .8c-0.5 .5-0.7 1.2-0.7 2.1v4.8h-1.4v-8.8h1.4v1.3c.3-0.5 .7-0.8 1.2-1.1c.5-0.2 1-0.3 1.6-0.3c.7 0 1.4 .1 1.9 .5c.6 .3 1 .8 1.3 1.4c.3-0.6 .7-1.1 1.2-1.4c.6-0.4 1.2-0.5 1.9-0.5Zm13.7 .1v8.8h-1.4v-1.3c-0.3 .5-0.7 .8-1.2 1.1c-0.5 .2-1 .3-1.6 .3c-0.7 0-1.3-0.1-1.9-0.4c-0.5-0.3-0.9-0.7-1.3-1.3c-0.3-0.5-0.4-1.2-0.4-2v-5.2h1.4v5c0 .8 .2 1.5 .7 2c.4 .4 1 .7 1.8 .7c.7 0 1.4-0.3 1.8-0.8c.4-0.4 .7-1.1 .7-2.1v-4.8h1.4Zm3.9-3v11.8h-1.4v-11.8h1.4Z" fill="#4351e8"/></g><g visibility="hidden" transform="translate(299,234) translate(-56,-28)" style="animation: 15.5s linear infinite both a10_t, 15.5s linear infinite forwards a10_v;"><rect width="112" height="56" rx="8" fill="#f92672"/><path d="M35.9 25.1c.7 0 1.3 .1 1.8 .4c.5 .3 1 .7 1.3 1.3c.3 .5 .4 1.2 .4 2v5.2h-1.4v-5c0-0.8-0.2-1.5-0.7-2c-0.4-0.4-1-0.7-1.7-0.7c-0.8 0-1.4 .3-1.8 .8c-0.5 .5-0.7 1.2-0.7 2.1v4.8h-1.4v-5c0-0.8-0.2-1.5-0.7-2c-0.4-0.4-1-0.7-1.7-0.7c-0.8 0-1.4 .3-1.8 .8c-0.5 .5-0.7 1.2-0.7 2.1v4.8h-1.5v-8.8h1.5v1.3c.3-0.5 .7-0.8 1.1-1.1c.5-0.2 1.1-0.3 1.7-0.3c.7 0 1.4 .1 1.9 .5c.6 .3 1 .8 1.3 1.4c.2-0.6 .6-1.1 1.2-1.4c.6-0.4 1.2-0.5 1.9-0.5Zm5.4 4.5c0-0.9 .2-1.7 .5-2.4c.4-0.7 .9-1.2 1.5-1.6c.7-0.3 1.4-0.5 2.1-0.5c.8 0 1.5 .2 2 .5c.6 .3 1 .7 1.3 1.2v-1.6h1.5v8.8h-1.5v-1.6c-0.3 .5-0.7 .9-1.3 1.2c-0.6 .4-1.2 .5-2 .5c-0.8 0-1.5-0.1-2.1-0.5c-0.6-0.4-1.1-1-1.5-1.6c-0.3-0.7-0.5-1.5-0.5-2.4Zm7.4 0c0-0.7-0.1-1.2-0.4-1.7c-0.3-0.5-0.6-0.9-1.1-1.1c-0.4-0.3-0.9-0.4-1.5-0.4c-0.5 0-1 .1-1.5 .3c-0.4 .3-0.8 .7-1 1.2c-0.3 .4-0.4 1-0.4 1.7c0 .7 .1 1.2 .4 1.7c.2 .5 .6 .9 1 1.2c.5 .2 1 .4 1.5 .4c.6 0 1.1-0.2 1.5-0.4c.5-0.3 .8-0.7 1.1-1.2c.3-0.5 .4-1 .4-1.7Zm5.7-3.2v5.2c0 .4 .1 .7 .3 .9c.2 .2 .5 .3 .9 .3h1.1v1.2h-1.3c-0.8 0-1.4-0.2-1.8-0.6c-0.4-0.3-0.6-0.9-0.6-1.8v-5.2h-1.2v-1.2h1.2v-2.2h1.4v2.2h2.3v1.2h-2.3Zm14.6-1.3c.7 0 1.3 .1 1.8 .4c.6 .3 1 .7 1.3 1.3c.3 .5 .5 1.2 .5 2v5.2h-1.5v-5c0-0.8-0.2-1.5-0.6-2c-0.5-0.4-1-0.7-1.8-0.7c-0.7 0-1.3 .3-1.8 .8c-0.4 .5-0.7 1.2-0.7 2.1v4.8h-1.4v-5c0-0.8-0.2-1.5-0.7-2c-0.4-0.4-1-0.7-1.7-0.7c-0.8 0-1.4 .3-1.8 .8c-0.5 .5-0.7 1.2-0.7 2.1v4.8h-1.4v-8.8h1.4v1.3c.3-0.5 .7-0.8 1.2-1.1c.5-0.2 1-0.3 1.6-0.3c.7 0 1.4 .1 1.9 .5c.6 .3 1 .8 1.3 1.4c.3-0.6 .7-1.1 1.2-1.4c.6-0.4 1.2-0.5 1.9-0.5Zm13.7 .1v8.8h-1.4v-1.3c-0.3 .5-0.7 .8-1.2 1.1c-0.5 .2-1 .3-1.6 .3c-0.7 0-1.3-0.1-1.9-0.4c-0.5-0.3-0.9-0.7-1.3-1.3c-0.3-0.5-0.4-1.2-0.4-2v-5.2h1.4v5c0 .8 .2 1.5 .7 2c.4 .4 1 .7 1.8 .7c.7 0 1.4-0.3 1.8-0.8c.4-0.4 .7-1.1 .7-2.1v-4.8h1.4Zm3.9-3v11.8h-1.4v-11.8h1.4Z" fill="#fff"/></g><g opacity="0" transform="translate(299,370) translate(-54.5,-26.5)" style="animation: 15.5s linear infinite both a11_t, 15.5s linear infinite both a11_o;"><rect width="109" height="53" rx="6.5" stroke="#a6e22e" stroke-width="3" fill="#89c11b"/><path d="M36.9 25.8h-1.5v6.7h-2.7v-6.7h-1v-2.2h1v-0.3c0-1.1 .3-1.9 .9-2.5c.6-0.6 1.6-0.8 2.8-0.8c.2 0 .3 0 .4 0v2.3c-0.5 0-0.9 0-1.1 .2c-0.2 .2-0.3 .5-0.3 1v.1h1.5v2.2Zm10.1-2.2v8.9h-2.8v-1.2c-0.2 .4-0.6 .7-1.1 .9c-0.5 .3-1 .4-1.6 .4c-0.6 0-1.2-0.2-1.8-0.5c-0.5-0.3-0.9-0.7-1.2-1.3c-0.3-0.6-0.4-1.2-0.4-2v-5.2h2.7v4.8c0 .6 .2 1.1 .5 1.4c.3 .3 .7 .5 1.2 .5c.5 0 1-0.2 1.3-0.5c.3-0.3 .4-0.8 .4-1.4v-4.8h2.8Zm5.6 9c-0.8 0-1.5-0.1-2.1-0.4c-0.6-0.2-1.1-0.6-1.4-1.1c-0.4-0.4-0.6-1-0.6-1.5h2.7c0 .3 .1 .5 .4 .7c.3 .2 .6 .3 .9 .3c.4 0 .6-0.1 .8-0.2c.2-0.1 .3-0.3 .3-0.5c0-0.3-0.1-0.5-0.4-0.6c-0.2-0.1-0.7-0.2-1.3-0.4c-0.6-0.1-1.2-0.3-1.6-0.4c-0.4-0.2-0.8-0.5-1.1-0.8c-0.3-0.4-0.4-0.9-0.4-1.5c0-0.5 .1-1 .4-1.4c.3-0.4 .7-0.7 1.2-1c.6-0.2 1.2-0.4 2-0.4c1.1 0 2 .3 2.6 .9c.7 .5 1 1.3 1.1 2.2h-2.5c0-0.3-0.2-0.6-0.4-0.8c-0.2-0.1-0.5-0.2-0.9-0.2c-0.3 0-0.6 0-0.7 .2c-0.2 .1-0.3 .3-0.3 .5c0 .2 .1 .4 .4 .5c.3 .2 .7 .3 1.3 .4c.7 .2 1.2 .4 1.6 .5c.4 .2 .8 .5 1.1 .8c.3 .4 .5 .9 .5 1.5c0 .5-0.2 1-0.5 1.4c-0.2 .4-0.7 .7-1.2 1c-0.6 .2-1.2 .3-1.9 .3Zm13.7-4.7c0 .2 0 .5-0.1 .8h-6.2c.1 .5 .3 1 .6 1.3c.3 .3 .7 .4 1.1 .4c.7 0 1.2-0.3 1.5-0.9h2.9c-0.2 .6-0.4 1.2-0.8 1.6c-0.4 .5-0.9 .9-1.5 1.1c-0.6 .3-1.2 .4-2 .4c-0.8 0-1.6-0.2-2.3-0.5c-0.7-0.4-1.2-0.9-1.6-1.6c-0.4-0.7-0.6-1.5-0.6-2.5c0-0.9 .2-1.7 .6-2.4c.4-0.7 .9-1.2 1.6-1.6c.7-0.4 1.4-0.6 2.3-0.6c.9 0 1.7 .2 2.3 .6c.7 .4 1.2 .9 1.6 1.5c.4 .7 .6 1.5 .6 2.4Zm-2.8-0.7c0-0.5-0.2-0.9-0.5-1.1c-0.3-0.3-0.7-0.5-1.2-0.5c-0.5 0-0.8 .2-1.2 .4c-0.3 .3-0.5 .7-0.5 1.2h3.4Zm3.7 .8c0-0.9 .2-1.7 .5-2.4c.3-0.7 .8-1.2 1.4-1.6c.6-0.4 1.3-0.6 2-0.6c.6 0 1.1 .2 1.6 .4c.5 .3 .9 .6 1.2 1v-4.1h2.7v11.8h-2.7v-1.3c-0.3 .4-0.7 .8-1.1 1c-0.5 .3-1.1 .4-1.7 .4c-0.7 0-1.4-0.2-2-0.5c-0.6-0.4-1.1-1-1.4-1.6c-0.3-0.8-0.5-1.6-0.5-2.5Zm6.7 0c0-0.6-0.2-1.2-0.6-1.6c-0.4-0.4-0.8-0.6-1.4-0.6c-0.5 0-1 .2-1.4 .6c-0.3 .4-0.5 .9-0.5 1.6c0 .7 .2 1.2 .5 1.7c.4 .3 .9 .5 1.4 .5c.6 0 1-0.2 1.4-0.5c.4-0.4 .6-1 .6-1.7Z" fill="#fff"/></g><g transform="translate(244.5,65.5)"><rect width="109" height="53" rx="6.5" stroke="#4351e8" stroke-width="3" fill="#fff"/><path d="M32.2 24.9v5.2c0 .4 .1 .7 .3 .9c.2 .2 .5 .3 1 .3h1v1.2h-1.3c-0.8 0-1.4-0.2-1.8-0.6c-0.4-0.3-0.6-0.9-0.6-1.8v-5.2h-1.2v-1.2h1.2v-2.2h1.4v2.2h2.3v1.2h-2.3Zm12.1 2.9c0 .3 0 .6-0.1 .9h-7c.1 .8 .4 1.5 .9 2c.6 .5 1.2 .7 2 .7c.6 0 1.1-0.1 1.5-0.4c.5-0.3 .8-0.7 .9-1.2h1.6c-0.2 .8-0.7 1.5-1.4 2.1c-0.7 .5-1.6 .7-2.6 .7c-0.9 0-1.6-0.1-2.3-0.5c-0.6-0.4-1.1-0.9-1.5-1.6c-0.4-0.7-0.6-1.5-0.6-2.4c0-0.9 .2-1.7 .6-2.4c.3-0.7 .9-1.2 1.5-1.6c.7-0.3 1.4-0.5 2.3-0.5c.8 0 1.5 .2 2.2 .5c.6 .4 1.1 .9 1.5 1.5c.3 .7 .5 1.4 .5 2.2Zm-1.5-0.3c0-0.6-0.1-1.1-0.4-1.4c-0.2-0.5-0.6-0.8-1-1c-0.4-0.2-0.9-0.3-1.4-0.3c-0.7 0-1.4 .3-1.9 .7c-0.5 .5-0.8 1.1-0.9 2h5.6Zm7.7-3.9c1 0 1.9 .3 2.6 .9c.6 .7 1 1.6 1 2.8v5.2h-1.5v-5c0-0.8-0.2-1.5-0.6-2c-0.5-0.4-1.1-0.7-1.8-0.7c-0.8 0-1.4 .3-1.9 .8c-0.4 .4-0.6 1.1-0.6 2.1v4.8h-1.5v-8.8h1.5v1.3c.3-0.5 .6-0.8 1.1-1.1c.5-0.2 1.1-0.3 1.7-0.3Zm9 9c-0.6 0-1.2-0.1-1.8-0.3c-0.5-0.2-0.9-0.5-1.2-1c-0.3-0.4-0.5-0.8-0.5-1.4h1.5c0 .5 .2 .8 .6 1.1c.3 .3 .8 .4 1.4 .4c.6 0 1-0.1 1.3-0.4c.4-0.2 .5-0.5 .5-0.9c0-0.4-0.1-0.7-0.5-0.8c-0.3-0.2-0.9-0.4-1.6-0.6c-0.6-0.2-1.2-0.3-1.6-0.5c-0.4-0.2-0.7-0.4-1-0.8c-0.3-0.3-0.5-0.8-0.5-1.4c0-0.4 .2-0.8 .4-1.2c.3-0.4 .7-0.7 1.2-0.9c.5-0.2 1-0.3 1.7-0.3c.9 0 1.7 .2 2.3 .7c.6 .5 .9 1.2 1 2h-1.5c0-0.4-0.2-0.8-0.5-1.1c-0.4-0.2-0.8-0.4-1.4-0.4c-0.5 0-0.9 .1-1.2 .4c-0.4 .2-0.5 .5-0.5 .8c0 .3 .1 .6 .3 .8c.2 .1 .4 .3 .7 .4c.3 .1 .7 .2 1.2 .4c.6 .1 1.1 .3 1.5 .5c.4 .1 .7 .4 1 .7c.3 .4 .4 .8 .4 1.3c0 .5-0.1 .9-0.4 1.3c-0.2 .4-0.6 .7-1.1 .9c-0.5 .2-1 .3-1.7 .3Zm9.1 0c-0.8 0-1.5-0.1-2.2-0.5c-0.7-0.4-1.2-0.9-1.6-1.6c-0.4-0.7-0.5-1.5-0.5-2.4c0-0.9 .1-1.7 .5-2.4c.4-0.7 1-1.2 1.6-1.6c.7-0.3 1.5-0.5 2.3-0.5c.8 0 1.6 .2 2.2 .5c.7 .4 1.2 .9 1.6 1.6c.4 .7 .6 1.5 .6 2.4c0 .9-0.2 1.7-0.6 2.4c-0.4 .7-0.9 1.2-1.6 1.6c-0.7 .4-1.4 .5-2.3 .5Zm0-1.2c.5 0 1-0.2 1.5-0.4c.5-0.2 .8-0.6 1.1-1.1c.3-0.5 .4-1.1 .4-1.8c0-0.7-0.1-1.3-0.4-1.8c-0.3-0.5-0.6-0.8-1.1-1.1c-0.4-0.2-0.9-0.3-1.4-0.3c-0.6 0-1.1 .1-1.5 .3c-0.4 .3-0.8 .6-1.1 1.1c-0.2 .5-0.4 1.1-0.4 1.8c0 .7 .2 1.3 .4 1.8c.3 .5 .6 .9 1.1 1.1c.4 .2 .9 .4 1.4 .4Zm7.9-6.2c.2-0.5 .6-0.9 1.1-1.2c.5-0.3 1-0.4 1.7-0.4v1.5h-0.4c-1.6 0-2.4 .9-2.4 2.6v4.8h-1.5v-8.8h1.5v1.5Z" fill="#4351e8"/></g><g><rect width="131" height="609" rx="9.5" stroke="#b6bcf6" stroke-width="3" fill="#fff" transform="translate(446.5,65.5)" style="animation: 15.5s linear infinite both a12_f;"/><path d="M447.5 75c0-4.4 3.6-8 8-8h113c4.4 0 8 3.6 8 8v52h-129v-52Z" fill="#b6bcf6"/><path d="M484.9 103.1c-0.8 0-1.6-0.1-2.2-0.5c-0.7-0.4-1.2-0.9-1.6-1.6c-0.4-0.7-0.6-1.5-0.6-2.4c0-0.9 .2-1.7 .6-2.4c.4-0.7 1-1.2 1.6-1.6c.7-0.3 1.4-0.5 2.3-0.5c.8 0 1.6 .2 2.2 .5c.7 .4 1.2 .9 1.6 1.6c.4 .7 .6 1.5 .6 2.4c0 .9-0.2 1.7-0.6 2.4c-0.4 .7-0.9 1.2-1.6 1.6c-0.7 .4-1.5 .5-2.3 .5Zm0-1.2c.5 0 1-0.2 1.5-0.4c.4-0.2 .8-0.6 1.1-1.1c.3-0.5 .4-1.1 .4-1.8c0-0.7-0.1-1.3-0.4-1.8c-0.3-0.5-0.6-0.8-1.1-1.1c-0.4-0.2-0.9-0.3-1.4-0.3c-0.6 0-1.1 .1-1.5 .3c-0.4 .3-0.8 .6-1.1 1.1c-0.2 .5-0.4 1.1-0.4 1.8c0 .7 .2 1.3 .4 1.8c.3 .5 .6 .9 1.1 1.1c.4 .2 .9 .4 1.4 .4Zm10-6.5h-1.8v7.6h-1.5v-7.6h-1.1v-1.2h1.1v-0.6c0-1 .2-1.7 .8-2.1c.5-0.5 1.3-0.7 2.4-0.7v1.2c-0.6 0-1.1 .1-1.4 .4c-0.2 .2-0.3 .6-0.3 1.2v.6h1.8v1.2Zm5.3 0h-1.9v7.6h-1.4v-7.6h-1.2v-1.2h1.2v-0.6c0-1 .2-1.7 .7-2.1c.5-0.5 1.3-0.7 2.5-0.7v1.2c-0.7 0-1.1 .1-1.4 .4c-0.3 .2-0.4 .6-0.4 1.2v.6h1.9v1.2Zm7.7 1.1v1.3h-6.3v-1.3h6.3Zm2.2 2.1c0-0.9 .2-1.7 .6-2.4c.3-0.7 .8-1.2 1.5-1.6c.6-0.3 1.4-0.5 2.2-0.5c1.1 0 2 .2 2.7 .8c.7 .5 1.1 1.2 1.3 2.1h-1.5c-0.2-0.5-0.5-0.9-0.9-1.2c-0.4-0.3-1-0.5-1.6-0.5c-0.8 0-1.5 .3-2 .9c-0.5 .5-0.8 1.4-0.8 2.4c0 1.1 .3 1.9 .8 2.4c.5 .6 1.2 .9 2 .9c.6 0 1.2-0.1 1.6-0.4c.4-0.3 .7-0.8 .9-1.3h1.5c-0.2 .9-0.7 1.6-1.4 2.1c-0.7 .6-1.5 .8-2.6 .8c-0.8 0-1.6-0.1-2.2-0.5c-0.7-0.4-1.2-0.9-1.5-1.6c-0.4-0.7-0.6-1.5-0.6-2.4Zm14.6-4.5c.7 0 1.3 .1 1.8 .4c.6 .3 1 .7 1.3 1.3c.3 .5 .4 1.2 .4 2v5.2h-1.4v-5c0-0.8-0.2-1.5-0.7-2c-0.4-0.4-1-0.7-1.7-0.7c-0.8 0-1.4 .3-1.9 .8c-0.4 .4-0.7 1.1-0.7 2.1v4.8h-1.4v-11.8h1.4v4.3c.3-0.5 .7-0.8 1.2-1.1c.5-0.2 1.1-0.3 1.7-0.3Zm6.7-1.3c-0.3 0-0.5-0.1-0.7-0.3c-0.2-0.2-0.3-0.4-0.3-0.7c0-0.3 .1-0.5 .3-0.7c.2-0.2 .4-0.3 .7-0.3c.2 0 .5 .1 .6 .3c.2 .2 .3 .4 .3 .7c0 .3-0.1 .5-0.3 .7c-0.1 .2-0.4 .3-0.6 .3Zm.7 1.4v8.8h-1.5v-8.8h1.5Zm3.9 1.6c.3-0.5 .7-0.9 1.3-1.2c.6-0.3 1.2-0.5 2-0.5c.8 0 1.5 .2 2.1 .5c.6 .4 1.1 .9 1.5 1.6c.4 .7 .6 1.5 .6 2.4c0 .9-0.2 1.7-0.6 2.4c-0.4 .6-0.9 1.2-1.5 1.6c-0.6 .4-1.3 .5-2.1 .5c-0.8 0-1.4-0.1-2-0.5c-0.6-0.3-1-0.7-1.3-1.2v5.8h-1.4v-13h1.4v1.6Zm6 2.8c0-0.7-0.2-1.3-0.4-1.7c-0.3-0.5-0.7-0.9-1.1-1.2c-0.5-0.2-1-0.3-1.5-0.3c-0.5 0-1 .1-1.5 .4c-0.4 .2-0.8 .6-1.1 1.1c-0.3 .5-0.4 1-0.4 1.7c0 .7 .1 1.2 .4 1.7c.3 .5 .7 .9 1.1 1.2c.5 .2 1 .4 1.5 .4c.5 0 1-0.2 1.5-0.4c.4-0.3 .8-0.7 1.1-1.2c.2-0.5 .4-1 .4-1.7Z" fill="#fff"/><path d="M492.4 366.8c1.2 0 2.2 .2 3.1 .7c.9 .4 1.6 1.1 2.1 2c.5 .8 .7 1.8 .7 2.9c0 1.1-0.2 2.1-0.7 2.9c-0.5 .9-1.2 1.5-2.1 2c-0.9 .5-1.9 .7-3.1 .7h-4.2v-11.2h4.2Zm-0.1 8.8c1 0 1.8-0.3 2.4-0.8c.5-0.6 .8-1.4 .8-2.4c0-1.1-0.3-1.9-0.8-2.4c-0.6-0.6-1.4-0.9-2.4-0.9h-1.3v6.5h1.3Zm13.3 2.4l-2.4-4.2h-0.6v4.2h-2.8v-11.2h4.6c.9 0 1.7 .1 2.3 .4c.6 .3 1.1 .8 1.4 1.3c.3 .5 .5 1.1 .5 1.8c0 .8-0.2 1.4-0.7 2c-0.4 .6-1 1-1.8 1.3l2.6 4.4h-3.1Zm-3-6.2h1.7c.5 0 .9-0.1 1.1-0.3c.3-0.3 .4-0.6 .4-1.1c0-0.4-0.1-0.7-0.4-1c-0.2-0.2-0.6-0.4-1.1-0.4h-1.7v2.8Zm14.7 4.2h-4.2l-0.7 2h-2.9l4.1-11.2h3.2l4 11.2h-2.9l-0.6-2Zm-0.7-2.1l-1.4-4.1l-1.4 4.1h2.8Zm18.2-7.1v11.2h-2.7v-6.7l-2.5 6.7h-2.3l-2.5-6.8v6.8h-2.7v-11.2h3.2l3.2 7.7l3.1-7.7h3.2Z" fill="#2a336c"/></g><g visibility="hidden" opacity="0" transform="translate(328,397) translate(-15.5,-147.5)" style="animation: 15.5s linear infinite both a13_t, 15.5s linear infinite forwards a13_v, 15.5s linear infinite both a13_o;"><g transform="translate(15.5,283.5) translate(-15.5,-11.5)" style="animation: 15.5s linear infinite both a14_t;"><rect width="31" height="23" rx="7.5" fill="#232a55" stroke="#232a55"/><path d="M10.2 3.5c-1.5 0-2.7 1.3-2.7 2.7c0 1.3 1.3 2.6 1.3 5.3c0 2.7-1.3 4-1.3 5.3c0 1.4 1.2 2.7 2.7 2.7c1.4 0 2.6-1.3 2.6-2.7c0-1.3-1.3-2.6-1.3-5.3c0-2.7 1.3-4 1.3-5.3c0-1.4-1.2-2.7-2.6-2.7Z" fill="#fff"/><path d="M18.9 18.7c1.1 1.1 2.8 1.1 3.8 0c1.1-1 1.1-2.7 0-3.8c-1-1-3.2-0.7-3.9-1.4c-0.4-0.4-1-1.1-1-2c0-0.9 .6-1.6 1-2c.7-0.7 2.9-0.4 3.9-1.4c1.1-1.1 1.1-2.8 0-3.8c-1-1.1-2.7-1.1-3.8 0c-1 1-0.7 3.2-1.4 3.9c-0.7 .6-2.6 1.1-3.4 1.9c-0.8 .8-0.8 2 0 2.8c.8 .8 2.7 1.3 3.4 1.9c.7 .7 .4 2.9 1.4 3.9Z" fill="#fff"/></g><g transform="translate(0,136)"><rect width="31" height="23" rx="7.5" fill="#232a55" stroke="#232a55"/><path d="M10.2 3.5c-1.5 0-2.7 1.3-2.7 2.7c0 1.3 1.3 2.6 1.3 5.3c0 2.7-1.3 4-1.3 5.3c0 1.4 1.2 2.7 2.7 2.7c1.4 0 2.6-1.3 2.6-2.7c0-1.3-1.3-2.6-1.3-5.3c0-2.7 1.3-4 1.3-5.3c0-1.4-1.2-2.7-2.6-2.7Z" fill="#fff"/><path d="M18.9 18.7c1.1 1.1 2.8 1.1 3.8 0c1.1-1 1.1-2.7 0-3.8c-1-1-3.2-0.7-3.9-1.4c-0.4-0.4-1-1.1-1-2c0-0.9 .6-1.6 1-2c.7-0.7 2.9-0.4 3.9-1.4c1.1-1.1 1.1-2.8 0-3.8c-1-1.1-2.7-1.1-3.8 0c-1 1-0.7 3.2-1.4 3.9c-0.7 .6-2.6 1.1-3.4 1.9c-0.8 .8-0.8 2 0 2.8c.8 .8 2.7 1.3 3.4 1.9c.7 .7 .4 2.9 1.4 3.9Z" fill="#fff"/></g><g transform="translate(15.5,11.5) translate(-15.5,-11.5)" style="animation: 15.5s linear infinite both a15_t;"><rect width="31" height="23" rx="7.5" fill="#232a55" stroke="#232a55"/><path d="M10.2 3.5c-1.5 0-2.7 1.3-2.7 2.7c0 1.3 1.3 2.6 1.3 5.3c0 2.7-1.3 4-1.3 5.3c0 1.4 1.2 2.7 2.7 2.7c1.4 0 2.6-1.3 2.6-2.7c0-1.3-1.3-2.6-1.3-5.3c0-2.7 1.3-4 1.3-5.3c0-1.4-1.2-2.7-2.6-2.7Z" fill="#fff"/><path d="M18.9 18.7c1.1 1.1 2.8 1.1 3.8 0c1.1-1 1.1-2.7 0-3.8c-1-1-3.2-0.7-3.9-1.4c-0.4-0.4-1-1.1-1-2c0-0.9 .6-1.6 1-2c.7-0.7 2.9-0.4 3.9-1.4c1.1-1.1 1.1-2.8 0-3.8c-1-1.1-2.7-1.1-3.8 0c-1 1-0.7 3.2-1.4 3.9c-0.7 .6-2.6 1.1-3.4 1.9c-0.8 .8-0.8 2 0 2.8c.8 .8 2.7 1.3 3.4 1.9c.7 .7 .4 2.9 1.4 3.9Z" fill="#fff"/></g></g><script><![CDATA[
new IntersectionObserver(function(es){es.forEach(function(e){if(e.isIntersecting){document.getElementById('_a0').getAnimations({subtree:true}).forEach(function(a){a.currentTime=0;a.play()})}else{document.getElementById('_a0').getAnimations({subtree:true}).forEach(function(a){a.pause();a.currentTime=0})}})},{threshold:.25}).observe(document.getElementById("_a0"));]]></script></svg>