<svg width="48" height="48" fill="none" xmlns="http://www.w3.org/2000/svg"><rect x="1.5" y="1.5" width="45" height="45" rx="22.5" fill="#A6E22E" fill-opacity=".4"/><path d="M34.095 21.041a2.479 2.479 0 0 1-2.477-2.475 2.479 2.479 0 0 1 2.477-2.475 2.478 2.478 0 0 1 2.474 2.475 2.478 2.478 0 0 1-2.474 2.475Z" fill="#699415"/><path d="M34.095 21.041a2.479 2.479 0 0 1-2.477-2.475 2.479 2.479 0 0 1 2.477-2.475 2.478 2.478 0 0 1 2.474 2.475 2.478 2.478 0 0 1-2.474 2.475Z" fill="#000" fill-opacity=".2"/><path d="M30.858 21.475a4.344 4.344 0 0 0 5.661.71c.545.355.814.85.814 1.508v4.857c-1.36 1.063-4.58 1.408-6.893-.041V25.19c0-.877-.194-1.695-.555-2.43.102-.39.539-.901.973-1.286Z" fill="#699415"/><path d="M30.858 21.475a4.344 4.344 0 0 0 5.661.71c.545.355.814.85.814 1.508v4.857c-1.36 1.063-4.58 1.408-6.893-.041V25.19c0-.877-.194-1.695-.555-2.43.102-.39.539-.901.973-1.286Z" fill="#000" fill-opacity=".2"/><path d="M23.944 22.237a4.29 4.29 0 0 0 4.285-4.286 4.29 4.29 0 0 0-4.285-4.284 4.288 4.288 0 0 0-4.284 4.284 4.29 4.29 0 0 0 4.284 4.286ZM27.581 22.672a5.93 5.93 0 0 1-3.637 1.247 5.93 5.93 0 0 1-3.601-1.22c-1.196.66-1.832 1.67-1.832 2.946v8.028c.812.542 3.031 1.859 5.433 1.859 3.187 0 4.947-1.275 5.517-1.777v-8.11c0-1.265-.668-2.306-1.88-2.973Z" fill="#49670E"/><path d="M13.905 21.041a2.479 2.479 0 0 0 2.477-2.475 2.479 2.479 0 0 0-2.477-2.475 2.478 2.478 0 0 0-2.474 2.475 2.478 2.478 0 0 0 2.474 2.475Z" fill="#699415"/><path d="M13.905 21.041a2.479 2.479 0 0 0 2.477-2.475 2.479 2.479 0 0 0-2.477-2.475 2.478 2.478 0 0 0-2.474 2.475 2.478 2.478 0 0 0 2.474 2.475Z" fill="#000" fill-opacity=".2"/><path d="M17.142 21.475a4.342 4.342 0 0 1-5.66.71c-.545.355-.816.85-.816 1.508v4.857c1.361 1.063 4.582 1.408 6.894-.041V25.19c0-.877.194-1.695.555-2.43-.102-.39-.539-.901-.973-1.286Z" fill="#699415"/><path d="M17.142 21.475a4.342 4.342 0 0 1-5.66.71c-.545.355-.816.85-.816 1.508v4.857c1.361 1.063 4.582 1.408 6.894-.041V25.19c0-.877.194-1.695.555-2.43-.102-.39-.539-.901-.973-1.286Z" fill="#000" fill-opacity=".2"/><rect x="1.5" y="1.5" width="45" height="45" rx="22.5" stroke="#A6E22E" stroke-width="3"/></svg>