<svg width="48" height="48" fill="none" xmlns="http://www.w3.org/2000/svg"><rect x="1.5" y="1.5" width="45" height="45" rx="22.5" fill="#A6E22E" fill-opacity=".4"/><path d="M24 11c-7.334 0-13.334 6-13.334 13.333 0 4.933 2.803 9.334 6.803 11.6.796.4 1.598.801 2.53 1.067l3.199-8.802c-.933-.266-1.73-.797-2.266-1.464-.666-.666-.932-1.468-.932-2.4 0-2.266 1.734-4 4-4 2.265 0 4 1.734 4 4 0 .932-.266 1.734-.802 2.4-.532.667-1.334 1.334-2.266 1.464L28.135 37c.797-.266 1.73-.667 2.396-1.068 4.136-2.265 6.802-6.666 6.802-11.599C37.333 17 31.333 11 24 11Zm5.599 22.401-1.464-3.87c1.6-1.198 2.531-3.062 2.531-5.198 0-3.734-2.932-6.666-6.666-6.666-3.735 0-6.667 2.932-6.667 6.666 0 2.136.933 4 2.531 5.198l-1.463 3.87c-3.068-1.87-5.068-5.203-5.068-9.068 0-5.864 4.802-10.666 10.667-10.666 5.864 0 10.666 4.802 10.666 10.666 0 3.865-2 7.198-5.067 9.068Z" fill="#49670E"/><rect x="1.5" y="1.5" width="45" height="45" rx="22.5" stroke="#A6E22E" stroke-width="3"/></svg>