<svg width="48" height="48" fill="none" xmlns="http://www.w3.org/2000/svg"><rect width="48" height="48" rx="24" fill="#000" fill-opacity=".4"/><path d="m35.648 31.976-6.372-6.372h-1.19l-3.054 3.054v1.19l6.372 6.372a1.197 1.197 0 0 0 1.696 0l2.548-2.549a1.197 1.197 0 0 0 0-1.695Z" fill="#fff"/><path d="m30.443 22.382 1.695-1.695 2.549 2.549a3.606 3.606 0 0 0 0-5.098l-4.256-4.256-1.696 1.695v-3.39l-.841-.854-4.256 4.256.853.854h3.403l-1.695 1.695 1.274 1.274-3.474 3.475-4.966-4.965v-1.707l-3.63-3.631L12 15.986l3.643 3.643h1.695l4.965 4.965-1.022 1.022h-2.548l-6.372 6.372a1.197 1.197 0 0 0 0 1.695l2.548 2.55a1.197 1.197 0 0 0 1.696 0l6.372-6.373v-2.549l6.191-6.191 1.275 1.262Z" fill="#fff"/><rect x="1.5" y="1.5" width="45" height="45" rx="22.5" stroke="#fff" stroke-opacity=".3" stroke-width="3"/></svg>