<svg width="48" height="48" fill="none" xmlns="http://www.w3.org/2000/svg"><rect width="48" height="48" rx="24" fill="#000" fill-opacity=".4"/><path d="M29.542 10.667c-1.964.078-3.646 1.39-5.433 3.177-1.343 1.344-2.718 3.036-4.047 4.922-.682.047-1.343.109-1.984.192-.443-1.333-.73-2.53-.745-3.385-.015-.75.068-1.365.188-1.73.12-.37.219-.432.26-.452a.503.503 0 0 1 .214-.058c.599-.047 1.396.12 2.484 1.026l1.709-2.052c-1.495-1.24-3.042-1.734-4.391-1.63h-.005c-.412.031-.839.14-1.224.333-.828.428-1.328 1.22-1.589 2.01-.255.798-.328 1.662-.312 2.605.026 1.177.302 2.484.708 3.823-.5.12-1 .24-1.448.385-1.193.375-2.219.839-3.042 1.47-.817.63-1.49 1.525-1.552 2.63-.052 1 .448 1.932 1.104 2.562.662.625 1.485 1.052 2.412 1.416l.969-2.49c-.73-.28-1.271-.608-1.547-.864-.271-.26-.281-.343-.271-.49.005-.104.068-.307.51-.65.448-.344 1.224-.73 2.22-1.042.468-.151.989-.281 1.54-.401.246.599.506 1.187.777 1.776-1.724 3.557-2.422 6.885-2.38 9.203.026 1.568.609 3.005 1.807 3.781.781.51 1.807.714 2.776.516.963-.198 1.885-.698 2.922-1.438l-1.547-2.166c-.875.62-1.52.911-1.906.99-.39.078-.51.046-.792-.136-.281-.182-.578-.615-.594-1.594-.02-1.354.35-3.552 1.282-6.026.067.136.14.287.208.417 1.193 2.213 2.98 4.854 4.86 6.88.937 1.01 1.89 1.875 2.9 2.453.974.563 2.177.88 3.302.37.98-.344 1.594-1.23 1.855-2.135.27-.948.302-2.016.177-3.22-.25-2.4-1.151-5.332-2.745-8.275l-2.344 1.26c1.432 2.667 2.235 5.339 2.438 7.287.099.979.036 1.77-.089 2.213-.125.443-.203.401-.146.386l-.12.036-.114.057c-.031.016-.26.068-.88-.291-.625-.354-1.448-1.063-2.276-1.959-1.662-1.786-3.391-4.317-4.464-6.323-.375-.692-.76-1.479-1.135-2.28a27.52 27.52 0 0 1 .979-1.657c.166-.25.333-.484.495-.724.385-.016.76-.042 1.156-.042.63 0 1.276.016 1.937.047 3.537.188 6.615.834 8.677 1.688 1.032.427 1.803.911 2.23 1.328.427.416.5.666.484.87.005-.032-.068.24-.563.573-.5.333-1.328.671-2.333.849l.459 2.625c1.307-.23 2.453-.652 3.359-1.26.906-.61 1.682-1.47 1.745-2.652.057-1.13-.51-2.156-1.297-2.922-.787-.765-1.823-1.364-3.063-1.875-2.474-1.026-5.786-1.687-9.557-1.885-.443-.021-.875-.021-1.313-.032.87-1.13 1.74-2.14 2.563-2.958 1.583-1.588 3.063-2.37 3.646-2.396.255-.005.375.037.463.094.23.151 1.078 1.417-.172 3.427l2.271 1.406c1.797-2.906 1.224-5.854-.645-7.067-.61-.396-1.329-.552-2.021-.526Zm-5.542 12c-.734 0-1.333.599-1.333 1.333s.599 1.333 1.333 1.333 1.333-.599 1.333-1.333-.599-1.333-1.333-1.333Z" fill="#fff"/><rect x="1.5" y="1.5" width="45" height="45" rx="22.5" stroke="#fff" stroke-opacity=".3" stroke-width="3"/></svg>