<svg width="48" height="48" fill="none" xmlns="http://www.w3.org/2000/svg"><rect x="1.5" y="1.5" width="45" height="45" rx="22.5" fill="#A6E22E" fill-opacity=".4"/><path d="M36.974 21.74c-1.344.007-6.25.286-9.9 3.844-1.533 1.371-2.47 2.93-3.074 4.391-.604-1.461-1.541-3.02-3.075-4.392-3.65-3.557-8.555-3.836-9.9-3.842a.352.352 0 0 0-.359.362c.011 1.292.331 5.84 4.11 9.227 3.89 3.788 7.742 3.744 9.224 3.744 1.481 0 5.333.044 9.223-3.744 3.78-3.388 4.1-7.934 4.11-9.227a.352.352 0 0 0-.359-.362ZM24 26.862a12.74 12.74 0 0 1 2.041-2.339 13.855 13.855 0 0 1 2.79-2.091c-.761-3.264-2.394-6.16-4.478-7.973a.556.556 0 0 0-.701 0c-2.083 1.812-3.716 4.705-4.479 7.966.943.541 1.875 1.21 2.742 2.055.789.707 1.489 1.507 2.085 2.382Z" fill="#49670E"/><rect x="1.5" y="1.5" width="45" height="45" rx="22.5" stroke="#A6E22E" stroke-width="3"/></svg>