<svg width="48" height="48" fill="none" xmlns="http://www.w3.org/2000/svg"><rect width="48" height="48" rx="24" fill="#000" fill-opacity=".4"/><path fill-rule="evenodd" clip-rule="evenodd" d="M16.556 25.02c3.068 0 5.555-2.468 5.555-5.51 0-3.043-2.487-5.51-5.555-5.51C13.487 14 11 16.467 11 19.51c0 3.042 2.487 5.51 5.556 5.51Zm0-2.204c1.84 0 3.333-1.48 3.333-3.306s-1.492-3.306-3.333-3.306c-1.841 0-3.334 1.48-3.334 3.306 0 1.825 1.493 3.305 3.334 3.305ZM32.111 25.02c3.069 0 5.556-2.468 5.556-5.51 0-3.043-2.488-5.51-5.556-5.51s-5.555 2.467-5.555 5.51c0 3.042 2.487 5.51 5.555 5.51Zm0-2.204c1.841 0 3.334-1.48 3.334-3.306s-1.493-3.306-3.334-3.306c-1.84 0-3.333 1.48-3.333 3.306 0 1.825 1.492 3.305 3.333 3.305Z" fill="#fff"/><ellipse cx="24.334" cy="27.361" rx="12.222" ry="10.882" fill="#fff"/><path fill-rule="evenodd" clip-rule="evenodd" d="M19.333 25.397c-.99 0-1.777-.794-1.777-1.755h-2c0 2.081 1.699 3.755 3.777 3.755 2.079 0 3.778-1.674 3.778-3.755h-2c0 .961-.788 1.755-1.778 1.755Zm10 0c-.99 0-1.777-.794-1.777-1.755h-2c0 2.081 1.699 3.755 3.777 3.755 2.079 0 3.778-1.674 3.778-3.755h-2c0 .961-.788 1.755-1.778 1.755Z" fill="#000"/><path d="M24.333 35.287v-2.83m0 0 3.617-1.776m-3.617 1.776-3.616-1.776" stroke="#000" stroke-width="2"/><rect x="1.5" y="1.5" width="45" height="45" rx="22.5" stroke="#fff" stroke-opacity=".3" stroke-width="3"/></svg>