<svg width="106" height="24" viewBox="0 0 106 24" fill="none" xmlns="http://www.w3.org/2000/svg">
<path d="M36.6437 15.331L35.4636 14.0367L41.3072 8.82121C41.4975 8.64356 41.7069 8.56108 41.9353 8.57377C42.1764 8.58646 42.3794 8.68797 42.5444 8.87832C42.7221 9.06866 42.8045 9.27804 42.7919 9.50645C42.7792 9.73487 42.6776 9.9379 42.4873 10.1156L36.6437 15.331ZM35.7491 19.1379C35.4699 19.1379 35.2415 19.0554 35.0639 18.8905C34.8989 18.7128 34.8164 18.4844 34.8164 18.2052V5.20466C34.8164 4.92549 34.8989 4.70342 35.0639 4.53846C35.2415 4.3608 35.4699 4.27197 35.7491 4.27197C36.0283 4.27197 36.2503 4.3608 36.4153 4.53846C36.593 4.70342 36.6818 4.92549 36.6818 5.20466V18.2052C36.6818 18.4844 36.593 18.7128 36.4153 18.8905C36.2503 19.0554 36.0283 19.1379 35.7491 19.1379ZM42.5444 19.0427C42.3414 19.2077 42.113 19.2775 41.8592 19.2521C41.6181 19.2394 41.415 19.1316 41.2501 18.9285L37.3861 14.1509L38.7185 12.8946L42.6776 17.7674C42.8426 17.9705 42.9124 18.1925 42.887 18.4336C42.8743 18.662 42.7601 18.8651 42.5444 19.0427Z" fill="black"/>
<path d="M49.5973 19.214C48.544 19.214 47.605 18.992 46.7802 18.5478C45.968 18.091 45.3272 17.4692 44.8577 16.6825C44.4009 15.883 44.1725 14.9694 44.1725 13.9415C44.1725 12.9009 44.3882 11.9873 44.8196 11.2005C45.2638 10.4011 45.8729 9.77928 46.6469 9.33514C47.421 8.87832 48.3093 8.6499 49.3118 8.6499C50.3016 8.6499 51.1518 8.87197 51.8624 9.31611C52.573 9.74756 53.1123 10.3503 53.4803 11.1244C53.861 11.8858 54.0513 12.7677 54.0513 13.7702C54.0513 14.0113 53.9689 14.2143 53.8039 14.3793C53.6389 14.5316 53.4296 14.6077 53.1758 14.6077H45.5049V13.0849H53.1187L52.3382 13.6179C52.3256 12.9834 52.1987 12.4187 51.9576 11.9238C51.7164 11.4162 51.3738 11.0165 50.9297 10.7247C50.4856 10.4328 49.9462 10.2869 49.3118 10.2869C48.5884 10.2869 47.9667 10.4455 47.4464 10.7627C46.9388 11.08 46.5518 11.5178 46.2853 12.0761C46.0188 12.6218 45.8856 13.2436 45.8856 13.9415C45.8856 14.6394 46.0442 15.2612 46.3614 15.8069C46.6787 16.3525 47.1165 16.784 47.6748 17.1012C48.2331 17.4185 48.874 17.5771 49.5973 17.5771C49.9907 17.5771 50.3904 17.5073 50.7965 17.3677C51.2152 17.2154 51.5515 17.0441 51.8053 16.8538C51.9956 16.7142 52.1987 16.6444 52.4144 16.6444C52.6428 16.6317 52.8395 16.6951 53.0044 16.8347C53.2202 17.0251 53.3344 17.2345 53.3471 17.4629C53.3598 17.6913 53.2582 17.888 53.0425 18.0529C52.6111 18.3956 52.0718 18.6747 51.4246 18.8905C50.7901 19.1062 50.181 19.214 49.5973 19.214Z" fill="black"/>
<path d="M57.4603 12.6281C57.4603 11.8667 57.6443 11.1878 58.0123 10.5914C58.393 9.98232 58.9006 9.50011 59.5351 9.1448C60.1695 8.78949 60.8675 8.61183 61.6289 8.61183C62.3902 8.61183 62.9549 8.73873 63.3229 8.99252C63.7036 9.23363 63.8495 9.52549 63.7607 9.86811C63.7227 10.0458 63.6465 10.1854 63.5323 10.2869C63.4308 10.3757 63.3102 10.4328 63.1706 10.4582C63.0311 10.4836 62.8788 10.4772 62.7138 10.4391C61.9017 10.2742 61.172 10.2615 60.5249 10.4011C59.8777 10.5407 59.3638 10.8008 58.9831 11.1815C58.6151 11.5622 58.4311 12.0444 58.4311 12.6281H57.4603ZM57.4793 19.1379C57.1748 19.1379 56.94 19.0618 56.7751 18.9095C56.6101 18.7445 56.5276 18.5034 56.5276 18.1862V9.67777C56.5276 9.37321 56.6101 9.13846 56.7751 8.97349C56.94 8.80852 57.1748 8.72604 57.4793 8.72604C57.7966 8.72604 58.0313 8.80852 58.1836 8.97349C58.3486 9.12577 58.4311 9.36052 58.4311 9.67777V18.1862C58.4311 18.4907 58.3486 18.7255 58.1836 18.8905C58.0313 19.0554 57.7966 19.1379 57.4793 19.1379Z" fill="black"/>
<path d="M74.5785 19.1569C74.2994 19.1569 74.0646 19.0681 73.8743 18.8905C73.6966 18.7001 73.6078 18.4654 73.6078 18.1862V13.5037C73.6078 12.7804 73.4746 12.1903 73.2081 11.7335C72.9416 11.2767 72.5799 10.9404 72.1231 10.7247C71.679 10.4962 71.165 10.382 70.5813 10.382C70.0483 10.382 69.5661 10.4899 69.1347 10.7056C68.7032 10.9214 68.3606 11.2132 68.1068 11.5812C67.853 11.9365 67.7261 12.3489 67.7261 12.8185H66.527C66.527 12.019 66.7173 11.3084 67.098 10.6866C67.4914 10.0521 68.0243 9.55087 68.6969 9.18287C69.3694 8.81487 70.1245 8.63087 70.962 8.63087C71.8376 8.63087 72.618 8.82121 73.3032 9.2019C74.0012 9.5699 74.5468 10.1156 74.9402 10.8389C75.3463 11.5622 75.5493 12.4505 75.5493 13.5037V18.1862C75.5493 18.4654 75.4541 18.7001 75.2638 18.8905C75.0861 19.0681 74.8577 19.1569 74.5785 19.1569ZM66.7554 19.1569C66.4762 19.1569 66.2414 19.0681 66.0511 18.8905C65.8734 18.7001 65.7846 18.4654 65.7846 18.1862V9.6968C65.7846 9.40494 65.8734 9.17018 66.0511 8.99252C66.2414 8.81487 66.4762 8.72604 66.7554 8.72604C67.0472 8.72604 67.282 8.81487 67.4597 8.99252C67.6373 9.17018 67.7261 9.40494 67.7261 9.6968V18.1862C67.7261 18.4654 67.6373 18.7001 67.4597 18.8905C67.282 19.0681 67.0472 19.1569 66.7554 19.1569Z" fill="black"/>
<path d="M81.2338 19.1379C80.6754 19.1379 80.1805 18.9856 79.7491 18.6811C79.3176 18.3765 78.9814 17.9641 78.7403 17.4438C78.4992 16.9109 78.3786 16.3018 78.3786 15.6165V5.2237C78.3786 4.94452 78.4674 4.71611 78.6451 4.53846C78.8227 4.3608 79.0512 4.27197 79.3303 4.27197C79.6095 4.27197 79.8379 4.3608 80.0156 4.53846C80.1932 4.71611 80.2821 4.94452 80.2821 5.2237V15.6165C80.2821 16.086 80.3709 16.4731 80.5485 16.7776C80.7262 17.0822 80.9546 17.2345 81.2338 17.2345H81.7096C81.9634 17.2345 82.1665 17.3233 82.3187 17.5009C82.4837 17.6786 82.5662 17.907 82.5662 18.1862C82.5662 18.4654 82.4456 18.6938 82.2045 18.8714C81.9634 19.0491 81.6525 19.1379 81.2718 19.1379H81.2338Z" fill="black"/>
<path d="M85.0179 19.4425C84.6626 19.4425 84.3517 19.3156 84.0852 19.0618C83.8314 18.7953 83.7045 18.4844 83.7045 18.1291C83.7045 17.7611 83.8314 17.4502 84.0852 17.1964C84.3517 16.9299 84.6626 16.7967 85.0179 16.7967C85.3859 16.7967 85.6968 16.9299 85.9506 17.1964C86.2044 17.4502 86.3313 17.7611 86.3313 18.1291C86.3313 18.4844 86.2044 18.7953 85.9506 19.0618C85.6968 19.3156 85.3859 19.4425 85.0179 19.4425Z" fill="black"/>
<path d="M93.3413 19.214C92.415 19.214 91.5838 18.9856 90.8478 18.5288C90.1118 18.0593 89.5281 17.4311 89.0967 16.6444C88.6779 15.8449 88.4685 14.944 88.4685 13.9415C88.4685 12.939 88.6969 12.038 89.1538 11.2386C89.6233 10.4391 90.2514 9.81101 91.0382 9.35418C91.8376 8.88466 92.7322 8.6499 93.722 8.6499C94.7118 8.6499 95.6001 8.88466 96.3869 9.35418C97.1736 9.81101 97.7954 10.4391 98.2522 11.2386C98.7218 12.038 98.9565 12.939 98.9565 13.9415H98.2142C98.2142 14.944 97.9984 15.8449 97.567 16.6444C97.1482 17.4311 96.5709 18.0593 95.8349 18.5288C95.0989 18.9856 94.2677 19.214 93.3413 19.214ZM93.722 17.5009C94.3692 17.5009 94.9466 17.3487 95.4542 17.0441C95.9618 16.7269 96.3615 16.3018 96.6533 15.7688C96.9452 15.2231 97.0911 14.614 97.0911 13.9415C97.0911 13.2562 96.9452 12.6471 96.6533 12.1142C96.3615 11.5685 95.9618 11.1434 95.4542 10.8389C94.9466 10.5216 94.3692 10.363 93.722 10.363C93.0876 10.363 92.5102 10.5216 91.9899 10.8389C91.4823 11.1434 91.0762 11.5685 90.7717 12.1142C90.4798 12.6471 90.3339 13.2562 90.3339 13.9415C90.3339 14.614 90.4798 15.2231 90.7717 15.7688C91.0762 16.3018 91.4823 16.7269 91.9899 17.0441C92.5102 17.3487 93.0876 17.5009 93.722 17.5009ZM97.9858 19.1569C97.7066 19.1569 97.4718 19.0681 97.2815 18.8905C97.1038 18.7001 97.015 18.4654 97.015 18.1862V15.2739L97.3767 13.2562L98.9565 13.9415V18.1862C98.9565 18.4654 98.8613 18.7001 98.671 18.8905C98.4933 19.0681 98.2649 19.1569 97.9858 19.1569Z" fill="black"/>
<path d="M103.007 19.1379C102.728 19.1379 102.493 19.0491 102.303 18.8714C102.125 18.6811 102.036 18.4463 102.036 18.1671V9.6968C102.036 9.40494 102.125 9.17018 102.303 8.99252C102.493 8.81487 102.728 8.72604 103.007 8.72604C103.299 8.72604 103.534 8.81487 103.711 8.99252C103.889 9.17018 103.978 9.40494 103.978 9.6968V18.1671C103.978 18.4463 103.889 18.6811 103.711 18.8714C103.534 19.0491 103.299 19.1379 103.007 19.1379ZM103.007 7.03197C102.665 7.03197 102.366 6.91142 102.113 6.67032C101.871 6.41652 101.751 6.11832 101.751 5.7757C101.751 5.43308 101.871 5.14121 102.113 4.90011C102.366 4.64632 102.665 4.51942 103.007 4.51942C103.35 4.51942 103.642 4.64632 103.883 4.90011C104.137 5.14121 104.263 5.43308 104.263 5.7757C104.263 6.11832 104.137 6.41652 103.883 6.67032C103.642 6.91142 103.35 7.03197 103.007 7.03197Z" fill="black"/>
<path fill-rule="evenodd" clip-rule="evenodd" d="M2.48 0C1.11033 0 0 1.11033 0 2.48V21.52C0 22.8897 1.11033 24 2.48 24H24.8303C26.2 24 27.3103 22.8897 27.3103 21.52V2.48C27.3103 1.11033 26.2 0 24.8303 0H2.48ZM21.4964 19.8413C20.3653 20.9725 18.5313 20.9725 17.4001 19.8413C16.7717 19.2129 16.5797 18.2036 16.409 17.3065C16.2724 16.5886 16.1494 15.9426 15.8276 15.6207C15.4798 15.273 14.8065 14.9741 14.1065 14.6635C13.3489 14.3272 12.56 13.9771 12.119 13.5361C11.2707 12.6878 11.2707 11.3123 12.119 10.4639C12.56 10.0229 13.3489 9.6728 14.1065 9.33655L14.1065 9.33654C14.8065 9.02588 15.4798 8.72705 15.8276 8.37931C16.1494 8.05745 16.2724 7.41137 16.409 6.69354C16.5797 5.79636 16.7717 4.78712 17.4001 4.15873C18.5313 3.02755 20.3653 3.02755 21.4964 4.15872C22.6276 5.2899 22.6276 7.12389 21.4964 8.25507C20.8681 8.88346 19.8588 9.0755 18.9616 9.24621C18.2438 9.38279 17.5977 9.50572 17.2759 9.82759C16.8535 10.25 16.1164 11.0384 16.1164 12C16.1164 12.9617 16.8535 13.7501 17.2759 14.1724C17.5977 14.4943 18.2438 14.6172 18.9616 14.7538C19.8588 14.9245 20.8681 15.1165 21.4964 15.7449C22.6276 16.8761 22.6276 18.7101 21.4964 19.8413ZM4.96552 6.2069C4.96552 4.75863 6.26235 3.31035 7.86207 3.31035C9.46179 3.31035 10.7586 4.75863 10.7586 6.2069C10.7586 6.8068 10.5101 7.40669 10.219 8.10952C9.80731 9.10345 9.31034 10.3032 9.31034 12C9.31034 13.6968 9.80731 14.8966 10.219 15.8905C10.5101 16.5933 10.7586 17.1932 10.7586 17.7931C10.7586 19.2414 9.46179 20.6897 7.86207 20.6897C6.26235 20.6897 4.96552 19.2414 4.96552 17.7931C4.96552 17.1932 5.214 16.5933 5.50512 15.8905C5.91682 14.8966 6.41379 13.6968 6.41379 12C6.41379 10.3032 5.91682 9.10345 5.50512 8.10952C5.214 7.40669 4.96552 6.8068 4.96552 6.2069Z" fill="black"/>
</svg>
