<svg width="192" height="88" fill="none" xmlns="http://www.w3.org/2000/svg"><path d="M93.559 16h-.5c-.635 0-1.213.404-1.424 1l-4.08 11.663h1.558L93.56 16Z" fill="#EB0029"/><path d="M25.955 42.518c-.27-.135-.423-.48-.423-1.02V29.99h-1.328v11.508c0 .52.077.963.211 1.309.327.789 1.155 1.193 2.463 1.193h5.331a.345.345 0 0 0 .346-.346v-.982h-5.657c-.404 0-.712-.058-.943-.154ZM36.539 29.99a2.53 2.53 0 0 0-1.655.597c-.462.404-.693 1.058-.693 1.963v8.987c0 1.058.289 1.77.866 2.117.27.154.539.269.79.307.25.039.461.078.615.078h.404l5.735-.29v-1.038h-5.735c-.385 0-.712-.058-.943-.154-.27-.135-.423-.481-.423-1.02v-3.81l6.004-.135c.192 0 .327-.154.327-.347v-.73l-6.35-.155v-3.79c0-.424.077-.732.25-.944.154-.192.462-.308.904-.308h5.927V30.26l-5.927-.27h-.096ZM47.72 29.99a2.53 2.53 0 0 0-1.655.597c-.462.404-.693 1.058-.693 1.963v11.43H46.7v-6.253l6.004-.135c.192 0 .327-.154.327-.347v-.73l-6.35-.155v-3.79c0-.424.077-.732.25-.944.154-.192.462-.308.904-.308h5.927V30.26l-5.927-.27h-.115ZM58.035 29.99a2.53 2.53 0 0 0-1.655.597c-.462.404-.693 1.058-.693 1.963v8.987c0 1.058.288 1.77.866 2.117.27.154.539.269.789.307.25.039.462.078.616.078h.404l5.734-.29v-1.038h-5.734c-.385 0-.712-.058-.943-.154-.27-.135-.424-.481-.424-1.02v-3.81L63 37.592c.192 0 .327-.154.327-.347v-.73l-6.35-.155v-3.79c0-.424.076-.732.25-.944.153-.192.461-.308.904-.308h5.927V30.26l-5.927-.27h-.096ZM75.085 42.75c.48-.732.731-1.637.731-2.695 0-.981-.231-1.79-.674-2.386-.327-.443-.692-.77-1.096-.943a2.53 2.53 0 0 0 1.154-1c.346-.578.539-1.271.539-2.06 0-.481-.058-.924-.193-1.309-.461-1.558-1.635-2.347-3.502-2.347H66.81V44h5.234c1.443 0 2.463-.423 3.04-1.25Zm-3.022-.078h-3.906v-5.33h3.926c.75 0 1.308.25 1.75.77.443.519.655 1.154.655 1.904 0 1.79-.789 2.656-2.425 2.656Zm1.732-7.274c-.423.404-1 .616-1.732.616h-3.906v-4.677h3.906c1.598 0 2.367.732 2.367 2.252 0 .789-.211 1.405-.635 1.809ZM97.138 38.17a3.077 3.077 0 0 0 1.116-.386c.27-.173.52-.404.712-.673.193-.27.347-.674.482-1.194.134-.5.192-1.116.192-1.79 0-2.732-1.116-4.117-3.348-4.117h-5.754V44h1.327v-5.985c.231.02.713.058 1.752.116 1.116.077 1.809.096 2.059.115l2.925 5.773h1.462l-2.925-5.85Zm1.174-4.12c0 1.002-.135 1.733-.404 2.175-.25.405-.789.616-1.578.616h-4.426v-5.484h4.426c.539 0 1 .154 1.366.442.193.174.347.462.462.847.096.385.154.866.154 1.405ZM104.605 29.99a2.53 2.53 0 0 0-1.655.597c-.462.404-.693 1.058-.693 1.963v8.987c0 1.058.289 1.77.866 2.117.27.154.539.269.789.307.25.039.462.078.616.078h.404l5.735-.29v-1.038h-5.735c-.385 0-.712-.058-.943-.154-.269-.135-.423-.481-.423-1.02v-3.81l6.004-.135c.192 0 .327-.154.327-.347v-.73l-6.35-.155v-3.79c0-.424.077-.732.25-.944.154-.192.462-.308.904-.308h5.927V30.26l-5.927-.27h-.096ZM70.524 57.452h-2.502c-.443 0-.827-.039-1.135-.116a1.31 1.31 0 0 1-.404-.192 1.394 1.394 0 0 1-.347-.424c-.077-.134-.192-.442-.192-1.154v-1.232c0-.885.192-1.482.558-1.732.423-.289.943-.423 1.732-.404.693 0 4.83.173 4.83.173v-1.078l-.115-.019c-.52-.077-1.27-.154-2.31-.27-1.02-.095-1.809-.153-2.328-.153-1.078 0-1.944.23-2.617.654-.732.52-1.097 1.463-1.097 2.81v1.231c0 .732.096 1.328.308 1.81.442.942 1.481 1.404 3.117 1.404h2.463c.655 0 1.097.154 1.367.462.27.308.404.789.404 1.405v1.27c0 .635-.193 1.097-.578 1.405-.153.134-.365.23-.615.308-.25.077-.481.134-.674.154-.192.019-.827.019-1.886.019a35.33 35.33 0 0 1-3.387-.173l-.134-.02v1.078l.096.02c.462.096 1.231.172 2.31.269a30.36 30.36 0 0 0 2.616.134 5.44 5.44 0 0 0 1.867-.327c1.135-.423 1.713-1.405 1.713-2.886v-1.27c0-.866-.193-1.598-.558-2.175-.424-.635-1.27-.981-2.502-.981ZM95.695 58.78c.27-.174.52-.405.712-.674.193-.27.346-.674.481-1.193.135-.5.193-1.116.193-1.79 0-2.733-1.117-4.118-3.349-4.118h-5.754v13.99h1.328V59.01c.23.02.712.058 1.751.116 1.116.077 1.81.096 2.06.115l2.924 5.773h1.463l-2.964-5.83a2.847 2.847 0 0 0 1.155-.405Zm.039-3.734c0 1-.135 1.732-.405 2.175-.25.404-.789.615-1.578.615h-4.426v-5.484h4.426c.54 0 1.001.154 1.367.443.192.173.346.461.462.846.096.385.154.866.154 1.405ZM107.646 58.78c.269-.174.519-.405.712-.674.192-.27.346-.674.481-1.193.134-.5.192-1.116.192-1.79 0-2.733-1.116-4.118-3.348-4.118h-5.754v13.99h1.328V59.01c.23.02.712.058 1.751.116 1.116.077 1.809.096 2.059.115l2.925 5.773h1.462l-2.963-5.83a2.96 2.96 0 0 0 1.155-.405Zm.038-3.734c0 1-.135 1.732-.404 2.175-.25.404-.789.615-1.578.615h-4.426v-5.484h4.426c.539 0 1.001.154 1.366.443.193.173.347.461.462.846.096.385.154.866.154 1.405ZM122.579 51.005v1.328h3.887v12.662h1.328V52.333h3.656a.345.345 0 0 0 .347-.347v-.981h-9.218ZM81.358 51.005h-1.674l-4.927 13.99h1.56l1.462-4.157h5.465l1.463 4.157h1.578l-4.907-13.913-.02-.077Zm1.424 8.525h-4.541l2.27-6.447 2.271 6.447ZM82.051 44h1.674l4.907-14.01h-1.558l-4.195 11.932-4.196-11.932h-1.559l4.889 13.914.038.096ZM74.296 66.342 72.314 72h.5c.635 0 1.193-.404 1.405-1l1.636-4.658h-1.56ZM116.19 65.091c2.251 0 3.098-.635 3.637-1.173 1.251-1.251 1.155-3.522 1.155-5.062v-7.87h-1.328v7.87c0 2.329-.02 3.253-.77 4.003-.654.654-1.289.847-1.982.885-.193.02-.539.02-.712.02-.173 0-.52 0-.712-.02-.712-.019-1.347-.23-1.982-.885-.751-.75-.77-1.693-.77-4.003v-7.87h-1.328v7.87c0 1.54-.096 3.791 1.155 5.061.539.54 1.405 1.174 3.637 1.174Z" fill="#060E9F"/><path d="M166.797 51h-14V37h7v-2h-7a2 2 0 0 0-2 2v14a2 2 0 0 0 2 2h14c1.1 0 2-.9 2-2v-7h-2v7Zm-5-16v2h3.59l-9.83 9.83 1.41 1.41 9.83-9.83V42h2v-7h-7Z" fill="#EB0029"/></svg>