<svg viewBox="0 0 24 24" fill="none" xmlns="http://www.w3.org/2000/svg"><path d="M8.21 23.98a1.15 1.15 0 0 1-.846-.342 1.224 1.224 0 0 1-.324-.846c0-.336.108-.612.324-.828a1.15 1.15 0 0 1 .846-.342c.336 0 .612.114.828.342.228.216.342.492.342.828 0 .324-.114.606-.342.846a1.09 1.09 0 0 1-.828.342ZM15.293 23.98a4.03 4.03 0 0 1-2.124-.576 4.312 4.312 0 0 1-1.512-1.602c-.36-.672-.54-1.428-.54-2.268 0-.84.18-1.596.54-2.268a4.363 4.363 0 0 1 1.494-1.602 3.97 3.97 0 0 1 2.142-.594c.648 0 1.224.138 1.728.414.516.264.93.636 1.242 1.116.312.468.486 1.014.522 1.638v2.574a3.307 3.307 0 0 1-.522 1.638c-.3.48-.708.858-1.224 1.134-.504.264-1.086.396-1.746.396Zm.27-1.53c.804 0 1.452-.27 1.944-.81.492-.552.738-1.254.738-2.106 0-.588-.114-1.098-.342-1.53a2.354 2.354 0 0 0-.936-1.026c-.408-.252-.882-.378-1.422-.378-.54 0-1.02.126-1.44.378a2.72 2.72 0 0 0-.972 1.044c-.228.432-.342.93-.342 1.494 0 .576.114 1.086.342 1.53.24.432.57.774.99 1.026.42.252.9.378 1.44.378Zm2.574 1.35v-2.304l.306-2.088-.306-2.07V15.25h1.638v8.55h-1.638ZM22.152 23.8v-8.55h1.62v8.55h-1.62Zm.81-10.26a1 1 0 0 1-.738-.288 1.061 1.061 0 0 1-.288-.756c0-.288.096-.528.288-.72a.969.969 0 0 1 .738-.306c.3 0 .546.102.738.306a.977.977 0 0 1 .288.72c0 .3-.096.552-.288.756a1 1 0 0 1-.738.288ZM12.216 0h-1.018C9.906 0 8.73.766 8.3 1.897L0 24h3.171l9.045-24Z"/></svg>